%TF.GenerationSoftware,KiCad,Pcbnew,9.0.2*%
%TF.CreationDate,2025-05-16T20:21:05+01:00*%
%TF.ProjectId,half-swept,68616c66-2d73-4776-9570-742e6b696361,rev?*%
%TF.SameCoordinates,Original*%
%TF.FileFunction,Profile,NP*%
%FSLAX46Y46*%
G04 Gerber Fmt 4.6, Leading zero omitted, Abs format (unit mm)*
G04 Created by KiCad (PCBNEW 9.0.2) date 2025-05-16 20:21:05*
%MOMM*%
%LPD*%
G01*
G04 APERTURE LIST*
%TA.AperFunction,Profile*%
%ADD10C,0.050000*%
%TD*%
G04 APERTURE END LIST*
D10*
X104988651Y-27085429D02*
G75*
G02*
X106993878Y-29084638I5249J-1999971D01*
G01*
X108999509Y-44614624D02*
G75*
G02*
X106999176Y-42615408I-309J2000024D01*
G01*
X73291094Y-24581203D02*
G75*
G02*
X71290699Y-22578614I-394J2000003D01*
G01*
X88369608Y-24578030D02*
G75*
G02*
X89369755Y-25572444I192J-999970D01*
G01*
X90375529Y-27123865D02*
G75*
G02*
X89372947Y-26129454I-2629J999965D01*
G01*
X18691723Y-40001666D02*
G75*
G02*
X20691722Y-38000022I1999977J1666D01*
G01*
X37000000Y-28001410D02*
G75*
G02*
X39001409Y-26001400I2000000J10D01*
G01*
X37000000Y-36000000D02*
G75*
G02*
X35000000Y-38000000I-2000000J0D01*
G01*
X54859185Y-24016066D02*
G75*
G02*
X52857782Y-26011190I-1999985J4866D01*
G01*
X54866372Y-21077901D02*
G75*
G02*
X56866366Y-19082766I2000028J-4899D01*
G01*
X69292610Y-19082793D02*
G75*
G02*
X71292605Y-21085382I-10J-2000007D01*
G01*
X108999509Y-44614624D02*
X126885000Y-44612000D01*
X106999216Y-42615408D02*
X106993911Y-29084638D01*
X71290675Y-22578614D02*
X71292608Y-21085382D01*
X88369608Y-24578030D02*
X73291094Y-24581203D01*
X69292610Y-19082793D02*
X56866366Y-19082793D01*
X89372914Y-26129454D02*
X89369802Y-25572444D01*
X54866372Y-21077901D02*
X54859185Y-24016066D01*
X52857782Y-26011173D02*
X39001409Y-26001410D01*
X37000000Y-28001410D02*
X37000000Y-36000000D01*
X35000000Y-38000000D02*
X20691722Y-38000000D01*
X53431068Y-74118894D02*
G75*
G02*
X51431075Y-76124275I-1999968J-5406D01*
G01*
X53423234Y-71242282D02*
G75*
G02*
X55423226Y-69236826I1999966J5482D01*
G01*
X70883763Y-69236835D02*
G75*
G02*
X72883728Y-71248883I37J-1999965D01*
G01*
X74855676Y-74574881D02*
G75*
G02*
X72875854Y-72562934I20124J1999881D01*
G01*
X97257199Y-97147915D02*
G75*
G02*
X97714652Y-97334429I-520599J-1931085D01*
G01*
X83028634Y-74657021D02*
G75*
G02*
X84939112Y-77179068I-20134J-1999879D01*
G01*
X82675149Y-93216616D02*
G75*
G02*
X81265197Y-90763419I520651J1931016D01*
G01*
X35441162Y-78111946D02*
G75*
G02*
X37441124Y-76124344I1999958J-12394D01*
G01*
X35391770Y-86082071D02*
G75*
G02*
X33393621Y-88069707I-1999970J12371D01*
G01*
X35391770Y-86082071D02*
X35441162Y-78111946D01*
X20768000Y-88081119D02*
X33393621Y-88069676D01*
X97714649Y-97334434D02*
X110938000Y-104748000D01*
X82675149Y-93216616D02*
X97257199Y-97147915D01*
X84939169Y-77179083D02*
X81265125Y-90763400D01*
X74855676Y-74574881D02*
X83028634Y-74657021D01*
X72883727Y-71248883D02*
X72875811Y-72562934D01*
X55423226Y-69236835D02*
X70883763Y-69236835D01*
X53431068Y-74118894D02*
X53423234Y-71242282D01*
X37441124Y-76124340D02*
X51431075Y-76124340D01*
X126885000Y-44612000D02*
G75*
G02*
X127635000Y-45362000I0J-750000D01*
G01*
X18691723Y-40001666D02*
X18730254Y-86245024D01*
X113670000Y-104149265D02*
G75*
G02*
X110938000Y-104748000I-1662000J1051265D01*
G01*
X20768000Y-88081119D02*
G75*
G02*
X18730252Y-86245024I-59750J1982509D01*
G01*
X127635000Y-45362000D02*
X127635000Y-62484000D01*
X125888304Y-83312000D02*
X113670000Y-104149265D01*
X127635000Y-75987850D02*
G75*
G02*
X125888308Y-83312002I-16773900J129950D01*
G01*
X127635000Y-62484000D02*
X127647000Y-69850000D01*
X127647000Y-69850000D02*
X127635000Y-75987850D01*
X104988651Y-27085429D02*
X90375529Y-27123865D01*
M02*
