%TF.GenerationSoftware,KiCad,Pcbnew,9.0.2*%
%TF.CreationDate,2025-05-16T23:43:09+01:00*%
%TF.ProjectId,my_sweepv2,6d795f73-7765-4657-9076-322e6b696361,rev?*%
%TF.SameCoordinates,Original*%
%TF.FileFunction,Legend,Top*%
%TF.FilePolarity,Positive*%
%FSLAX46Y46*%
G04 Gerber Fmt 4.6, Leading zero omitted, Abs format (unit mm)*
G04 Created by KiCad (PCBNEW 9.0.2) date 2025-05-16 23:43:09*
%MOMM*%
%LPD*%
G01*
G04 APERTURE LIST*
%ADD10C,0.300000*%
%ADD11C,0.120000*%
%ADD12C,0.125000*%
%ADD13C,0.150000*%
%ADD14C,0.100000*%
%ADD15C,1.524000*%
%ADD16C,1.397000*%
G04 APERTURE END LIST*
D10*
X230270614Y-72198857D02*
X230270614Y-72698857D01*
X231056328Y-72698857D02*
X229556328Y-72698857D01*
X229556328Y-72698857D02*
X229556328Y-71984571D01*
X231056328Y-70770286D02*
X230270614Y-70770286D01*
X230270614Y-70770286D02*
X230127757Y-70841714D01*
X230127757Y-70841714D02*
X230056328Y-70984571D01*
X230056328Y-70984571D02*
X230056328Y-71270286D01*
X230056328Y-71270286D02*
X230127757Y-71413143D01*
X230984900Y-70770286D02*
X231056328Y-70913143D01*
X231056328Y-70913143D02*
X231056328Y-71270286D01*
X231056328Y-71270286D02*
X230984900Y-71413143D01*
X230984900Y-71413143D02*
X230842042Y-71484571D01*
X230842042Y-71484571D02*
X230699185Y-71484571D01*
X230699185Y-71484571D02*
X230556328Y-71413143D01*
X230556328Y-71413143D02*
X230484900Y-71270286D01*
X230484900Y-71270286D02*
X230484900Y-70913143D01*
X230484900Y-70913143D02*
X230413471Y-70770286D01*
X230984900Y-69413143D02*
X231056328Y-69556000D01*
X231056328Y-69556000D02*
X231056328Y-69841714D01*
X231056328Y-69841714D02*
X230984900Y-69984571D01*
X230984900Y-69984571D02*
X230913471Y-70056000D01*
X230913471Y-70056000D02*
X230770614Y-70127428D01*
X230770614Y-70127428D02*
X230342042Y-70127428D01*
X230342042Y-70127428D02*
X230199185Y-70056000D01*
X230199185Y-70056000D02*
X230127757Y-69984571D01*
X230127757Y-69984571D02*
X230056328Y-69841714D01*
X230056328Y-69841714D02*
X230056328Y-69556000D01*
X230056328Y-69556000D02*
X230127757Y-69413143D01*
X230984900Y-68198857D02*
X231056328Y-68341714D01*
X231056328Y-68341714D02*
X231056328Y-68627429D01*
X231056328Y-68627429D02*
X230984900Y-68770286D01*
X230984900Y-68770286D02*
X230842042Y-68841714D01*
X230842042Y-68841714D02*
X230270614Y-68841714D01*
X230270614Y-68841714D02*
X230127757Y-68770286D01*
X230127757Y-68770286D02*
X230056328Y-68627429D01*
X230056328Y-68627429D02*
X230056328Y-68341714D01*
X230056328Y-68341714D02*
X230127757Y-68198857D01*
X230127757Y-68198857D02*
X230270614Y-68127429D01*
X230270614Y-68127429D02*
X230413471Y-68127429D01*
X230413471Y-68127429D02*
X230556328Y-68841714D01*
X231056328Y-65698858D02*
X229556328Y-65698858D01*
X230984900Y-65698858D02*
X231056328Y-65841715D01*
X231056328Y-65841715D02*
X231056328Y-66127429D01*
X231056328Y-66127429D02*
X230984900Y-66270286D01*
X230984900Y-66270286D02*
X230913471Y-66341715D01*
X230913471Y-66341715D02*
X230770614Y-66413143D01*
X230770614Y-66413143D02*
X230342042Y-66413143D01*
X230342042Y-66413143D02*
X230199185Y-66341715D01*
X230199185Y-66341715D02*
X230127757Y-66270286D01*
X230127757Y-66270286D02*
X230056328Y-66127429D01*
X230056328Y-66127429D02*
X230056328Y-65841715D01*
X230056328Y-65841715D02*
X230127757Y-65698858D01*
X231056328Y-64770286D02*
X230984900Y-64913143D01*
X230984900Y-64913143D02*
X230913471Y-64984572D01*
X230913471Y-64984572D02*
X230770614Y-65056000D01*
X230770614Y-65056000D02*
X230342042Y-65056000D01*
X230342042Y-65056000D02*
X230199185Y-64984572D01*
X230199185Y-64984572D02*
X230127757Y-64913143D01*
X230127757Y-64913143D02*
X230056328Y-64770286D01*
X230056328Y-64770286D02*
X230056328Y-64556000D01*
X230056328Y-64556000D02*
X230127757Y-64413143D01*
X230127757Y-64413143D02*
X230199185Y-64341715D01*
X230199185Y-64341715D02*
X230342042Y-64270286D01*
X230342042Y-64270286D02*
X230770614Y-64270286D01*
X230770614Y-64270286D02*
X230913471Y-64341715D01*
X230913471Y-64341715D02*
X230984900Y-64413143D01*
X230984900Y-64413143D02*
X231056328Y-64556000D01*
X231056328Y-64556000D02*
X231056328Y-64770286D01*
X230056328Y-63770286D02*
X231056328Y-63484572D01*
X231056328Y-63484572D02*
X230342042Y-63198857D01*
X230342042Y-63198857D02*
X231056328Y-62913143D01*
X231056328Y-62913143D02*
X230056328Y-62627429D01*
X230056328Y-62056000D02*
X231056328Y-62056000D01*
X230199185Y-62056000D02*
X230127757Y-61984571D01*
X230127757Y-61984571D02*
X230056328Y-61841714D01*
X230056328Y-61841714D02*
X230056328Y-61627428D01*
X230056328Y-61627428D02*
X230127757Y-61484571D01*
X230127757Y-61484571D02*
X230270614Y-61413143D01*
X230270614Y-61413143D02*
X231056328Y-61413143D01*
X29610614Y-71690857D02*
X29610614Y-72190857D01*
X30396328Y-72190857D02*
X28896328Y-72190857D01*
X28896328Y-72190857D02*
X28896328Y-71476571D01*
X30396328Y-70262286D02*
X29610614Y-70262286D01*
X29610614Y-70262286D02*
X29467757Y-70333714D01*
X29467757Y-70333714D02*
X29396328Y-70476571D01*
X29396328Y-70476571D02*
X29396328Y-70762286D01*
X29396328Y-70762286D02*
X29467757Y-70905143D01*
X30324900Y-70262286D02*
X30396328Y-70405143D01*
X30396328Y-70405143D02*
X30396328Y-70762286D01*
X30396328Y-70762286D02*
X30324900Y-70905143D01*
X30324900Y-70905143D02*
X30182042Y-70976571D01*
X30182042Y-70976571D02*
X30039185Y-70976571D01*
X30039185Y-70976571D02*
X29896328Y-70905143D01*
X29896328Y-70905143D02*
X29824900Y-70762286D01*
X29824900Y-70762286D02*
X29824900Y-70405143D01*
X29824900Y-70405143D02*
X29753471Y-70262286D01*
X30324900Y-68905143D02*
X30396328Y-69048000D01*
X30396328Y-69048000D02*
X30396328Y-69333714D01*
X30396328Y-69333714D02*
X30324900Y-69476571D01*
X30324900Y-69476571D02*
X30253471Y-69548000D01*
X30253471Y-69548000D02*
X30110614Y-69619428D01*
X30110614Y-69619428D02*
X29682042Y-69619428D01*
X29682042Y-69619428D02*
X29539185Y-69548000D01*
X29539185Y-69548000D02*
X29467757Y-69476571D01*
X29467757Y-69476571D02*
X29396328Y-69333714D01*
X29396328Y-69333714D02*
X29396328Y-69048000D01*
X29396328Y-69048000D02*
X29467757Y-68905143D01*
X30324900Y-67690857D02*
X30396328Y-67833714D01*
X30396328Y-67833714D02*
X30396328Y-68119429D01*
X30396328Y-68119429D02*
X30324900Y-68262286D01*
X30324900Y-68262286D02*
X30182042Y-68333714D01*
X30182042Y-68333714D02*
X29610614Y-68333714D01*
X29610614Y-68333714D02*
X29467757Y-68262286D01*
X29467757Y-68262286D02*
X29396328Y-68119429D01*
X29396328Y-68119429D02*
X29396328Y-67833714D01*
X29396328Y-67833714D02*
X29467757Y-67690857D01*
X29467757Y-67690857D02*
X29610614Y-67619429D01*
X29610614Y-67619429D02*
X29753471Y-67619429D01*
X29753471Y-67619429D02*
X29896328Y-68333714D01*
X30396328Y-65190858D02*
X28896328Y-65190858D01*
X30324900Y-65190858D02*
X30396328Y-65333715D01*
X30396328Y-65333715D02*
X30396328Y-65619429D01*
X30396328Y-65619429D02*
X30324900Y-65762286D01*
X30324900Y-65762286D02*
X30253471Y-65833715D01*
X30253471Y-65833715D02*
X30110614Y-65905143D01*
X30110614Y-65905143D02*
X29682042Y-65905143D01*
X29682042Y-65905143D02*
X29539185Y-65833715D01*
X29539185Y-65833715D02*
X29467757Y-65762286D01*
X29467757Y-65762286D02*
X29396328Y-65619429D01*
X29396328Y-65619429D02*
X29396328Y-65333715D01*
X29396328Y-65333715D02*
X29467757Y-65190858D01*
X30396328Y-64262286D02*
X30324900Y-64405143D01*
X30324900Y-64405143D02*
X30253471Y-64476572D01*
X30253471Y-64476572D02*
X30110614Y-64548000D01*
X30110614Y-64548000D02*
X29682042Y-64548000D01*
X29682042Y-64548000D02*
X29539185Y-64476572D01*
X29539185Y-64476572D02*
X29467757Y-64405143D01*
X29467757Y-64405143D02*
X29396328Y-64262286D01*
X29396328Y-64262286D02*
X29396328Y-64048000D01*
X29396328Y-64048000D02*
X29467757Y-63905143D01*
X29467757Y-63905143D02*
X29539185Y-63833715D01*
X29539185Y-63833715D02*
X29682042Y-63762286D01*
X29682042Y-63762286D02*
X30110614Y-63762286D01*
X30110614Y-63762286D02*
X30253471Y-63833715D01*
X30253471Y-63833715D02*
X30324900Y-63905143D01*
X30324900Y-63905143D02*
X30396328Y-64048000D01*
X30396328Y-64048000D02*
X30396328Y-64262286D01*
X29396328Y-63262286D02*
X30396328Y-62976572D01*
X30396328Y-62976572D02*
X29682042Y-62690857D01*
X29682042Y-62690857D02*
X30396328Y-62405143D01*
X30396328Y-62405143D02*
X29396328Y-62119429D01*
X29396328Y-61548000D02*
X30396328Y-61548000D01*
X29539185Y-61548000D02*
X29467757Y-61476571D01*
X29467757Y-61476571D02*
X29396328Y-61333714D01*
X29396328Y-61333714D02*
X29396328Y-61119428D01*
X29396328Y-61119428D02*
X29467757Y-60976571D01*
X29467757Y-60976571D02*
X29610614Y-60905143D01*
X29610614Y-60905143D02*
X30396328Y-60905143D01*
D11*
X227681571Y-48954724D02*
X227681571Y-48204724D01*
X227681571Y-48204724D02*
X227931571Y-48740438D01*
X227931571Y-48740438D02*
X228181571Y-48204724D01*
X228181571Y-48204724D02*
X228181571Y-48954724D01*
X228538714Y-48954724D02*
X228538714Y-48454724D01*
X228538714Y-48204724D02*
X228503000Y-48240438D01*
X228503000Y-48240438D02*
X228538714Y-48276152D01*
X228538714Y-48276152D02*
X228574428Y-48240438D01*
X228574428Y-48240438D02*
X228538714Y-48204724D01*
X228538714Y-48204724D02*
X228538714Y-48276152D01*
X229217286Y-48919010D02*
X229145857Y-48954724D01*
X229145857Y-48954724D02*
X229003000Y-48954724D01*
X229003000Y-48954724D02*
X228931571Y-48919010D01*
X228931571Y-48919010D02*
X228895857Y-48883295D01*
X228895857Y-48883295D02*
X228860143Y-48811867D01*
X228860143Y-48811867D02*
X228860143Y-48597581D01*
X228860143Y-48597581D02*
X228895857Y-48526152D01*
X228895857Y-48526152D02*
X228931571Y-48490438D01*
X228931571Y-48490438D02*
X229003000Y-48454724D01*
X229003000Y-48454724D02*
X229145857Y-48454724D01*
X229145857Y-48454724D02*
X229217286Y-48490438D01*
X229538714Y-48954724D02*
X229538714Y-48454724D01*
X229538714Y-48597581D02*
X229574428Y-48526152D01*
X229574428Y-48526152D02*
X229610143Y-48490438D01*
X229610143Y-48490438D02*
X229681571Y-48454724D01*
X229681571Y-48454724D02*
X229753000Y-48454724D01*
X230110143Y-48954724D02*
X230038714Y-48919010D01*
X230038714Y-48919010D02*
X230003000Y-48883295D01*
X230003000Y-48883295D02*
X229967286Y-48811867D01*
X229967286Y-48811867D02*
X229967286Y-48597581D01*
X229967286Y-48597581D02*
X230003000Y-48526152D01*
X230003000Y-48526152D02*
X230038714Y-48490438D01*
X230038714Y-48490438D02*
X230110143Y-48454724D01*
X230110143Y-48454724D02*
X230217286Y-48454724D01*
X230217286Y-48454724D02*
X230288714Y-48490438D01*
X230288714Y-48490438D02*
X230324429Y-48526152D01*
X230324429Y-48526152D02*
X230360143Y-48597581D01*
X230360143Y-48597581D02*
X230360143Y-48811867D01*
X230360143Y-48811867D02*
X230324429Y-48883295D01*
X230324429Y-48883295D02*
X230288714Y-48919010D01*
X230288714Y-48919010D02*
X230217286Y-48954724D01*
X230217286Y-48954724D02*
X230110143Y-48954724D01*
X230681571Y-48204724D02*
X230681571Y-48811867D01*
X230681571Y-48811867D02*
X230717285Y-48883295D01*
X230717285Y-48883295D02*
X230753000Y-48919010D01*
X230753000Y-48919010D02*
X230824428Y-48954724D01*
X230824428Y-48954724D02*
X230967285Y-48954724D01*
X230967285Y-48954724D02*
X231038714Y-48919010D01*
X231038714Y-48919010D02*
X231074428Y-48883295D01*
X231074428Y-48883295D02*
X231110142Y-48811867D01*
X231110142Y-48811867D02*
X231110142Y-48204724D01*
X231431571Y-48919010D02*
X231538714Y-48954724D01*
X231538714Y-48954724D02*
X231717285Y-48954724D01*
X231717285Y-48954724D02*
X231788714Y-48919010D01*
X231788714Y-48919010D02*
X231824428Y-48883295D01*
X231824428Y-48883295D02*
X231860142Y-48811867D01*
X231860142Y-48811867D02*
X231860142Y-48740438D01*
X231860142Y-48740438D02*
X231824428Y-48669010D01*
X231824428Y-48669010D02*
X231788714Y-48633295D01*
X231788714Y-48633295D02*
X231717285Y-48597581D01*
X231717285Y-48597581D02*
X231574428Y-48561867D01*
X231574428Y-48561867D02*
X231502999Y-48526152D01*
X231502999Y-48526152D02*
X231467285Y-48490438D01*
X231467285Y-48490438D02*
X231431571Y-48419010D01*
X231431571Y-48419010D02*
X231431571Y-48347581D01*
X231431571Y-48347581D02*
X231467285Y-48276152D01*
X231467285Y-48276152D02*
X231502999Y-48240438D01*
X231502999Y-48240438D02*
X231574428Y-48204724D01*
X231574428Y-48204724D02*
X231752999Y-48204724D01*
X231752999Y-48204724D02*
X231860142Y-48240438D01*
X232431571Y-48561867D02*
X232538714Y-48597581D01*
X232538714Y-48597581D02*
X232574428Y-48633295D01*
X232574428Y-48633295D02*
X232610142Y-48704724D01*
X232610142Y-48704724D02*
X232610142Y-48811867D01*
X232610142Y-48811867D02*
X232574428Y-48883295D01*
X232574428Y-48883295D02*
X232538714Y-48919010D01*
X232538714Y-48919010D02*
X232467285Y-48954724D01*
X232467285Y-48954724D02*
X232181571Y-48954724D01*
X232181571Y-48954724D02*
X232181571Y-48204724D01*
X232181571Y-48204724D02*
X232431571Y-48204724D01*
X232431571Y-48204724D02*
X232503000Y-48240438D01*
X232503000Y-48240438D02*
X232538714Y-48276152D01*
X232538714Y-48276152D02*
X232574428Y-48347581D01*
X232574428Y-48347581D02*
X232574428Y-48419010D01*
X232574428Y-48419010D02*
X232538714Y-48490438D01*
X232538714Y-48490438D02*
X232503000Y-48526152D01*
X232503000Y-48526152D02*
X232431571Y-48561867D01*
X232431571Y-48561867D02*
X232181571Y-48561867D01*
D12*
X235677047Y-57810178D02*
X235629428Y-57774464D01*
X235629428Y-57774464D02*
X235557999Y-57774464D01*
X235557999Y-57774464D02*
X235486571Y-57810178D01*
X235486571Y-57810178D02*
X235438952Y-57881607D01*
X235438952Y-57881607D02*
X235415142Y-57953035D01*
X235415142Y-57953035D02*
X235391333Y-58095892D01*
X235391333Y-58095892D02*
X235391333Y-58203035D01*
X235391333Y-58203035D02*
X235415142Y-58345892D01*
X235415142Y-58345892D02*
X235438952Y-58417321D01*
X235438952Y-58417321D02*
X235486571Y-58488750D01*
X235486571Y-58488750D02*
X235557999Y-58524464D01*
X235557999Y-58524464D02*
X235605618Y-58524464D01*
X235605618Y-58524464D02*
X235677047Y-58488750D01*
X235677047Y-58488750D02*
X235700856Y-58453035D01*
X235700856Y-58453035D02*
X235700856Y-58203035D01*
X235700856Y-58203035D02*
X235605618Y-58203035D01*
X235915142Y-58524464D02*
X235915142Y-57774464D01*
X235915142Y-57774464D02*
X236200856Y-58524464D01*
X236200856Y-58524464D02*
X236200856Y-57774464D01*
X236438952Y-58524464D02*
X236438952Y-57774464D01*
X236438952Y-57774464D02*
X236558000Y-57774464D01*
X236558000Y-57774464D02*
X236629428Y-57810178D01*
X236629428Y-57810178D02*
X236677047Y-57881607D01*
X236677047Y-57881607D02*
X236700857Y-57953035D01*
X236700857Y-57953035D02*
X236724666Y-58095892D01*
X236724666Y-58095892D02*
X236724666Y-58203035D01*
X236724666Y-58203035D02*
X236700857Y-58345892D01*
X236700857Y-58345892D02*
X236677047Y-58417321D01*
X236677047Y-58417321D02*
X236629428Y-58488750D01*
X236629428Y-58488750D02*
X236558000Y-58524464D01*
X236558000Y-58524464D02*
X236438952Y-58524464D01*
X224027047Y-55280178D02*
X223979428Y-55244464D01*
X223979428Y-55244464D02*
X223907999Y-55244464D01*
X223907999Y-55244464D02*
X223836571Y-55280178D01*
X223836571Y-55280178D02*
X223788952Y-55351607D01*
X223788952Y-55351607D02*
X223765142Y-55423035D01*
X223765142Y-55423035D02*
X223741333Y-55565892D01*
X223741333Y-55565892D02*
X223741333Y-55673035D01*
X223741333Y-55673035D02*
X223765142Y-55815892D01*
X223765142Y-55815892D02*
X223788952Y-55887321D01*
X223788952Y-55887321D02*
X223836571Y-55958750D01*
X223836571Y-55958750D02*
X223907999Y-55994464D01*
X223907999Y-55994464D02*
X223955618Y-55994464D01*
X223955618Y-55994464D02*
X224027047Y-55958750D01*
X224027047Y-55958750D02*
X224050856Y-55923035D01*
X224050856Y-55923035D02*
X224050856Y-55673035D01*
X224050856Y-55673035D02*
X223955618Y-55673035D01*
X224265142Y-55994464D02*
X224265142Y-55244464D01*
X224265142Y-55244464D02*
X224550856Y-55994464D01*
X224550856Y-55994464D02*
X224550856Y-55244464D01*
X224788952Y-55994464D02*
X224788952Y-55244464D01*
X224788952Y-55244464D02*
X224908000Y-55244464D01*
X224908000Y-55244464D02*
X224979428Y-55280178D01*
X224979428Y-55280178D02*
X225027047Y-55351607D01*
X225027047Y-55351607D02*
X225050857Y-55423035D01*
X225050857Y-55423035D02*
X225074666Y-55565892D01*
X225074666Y-55565892D02*
X225074666Y-55673035D01*
X225074666Y-55673035D02*
X225050857Y-55815892D01*
X225050857Y-55815892D02*
X225027047Y-55887321D01*
X225027047Y-55887321D02*
X224979428Y-55958750D01*
X224979428Y-55958750D02*
X224908000Y-55994464D01*
X224908000Y-55994464D02*
X224788952Y-55994464D01*
X235657047Y-60390178D02*
X235609428Y-60354464D01*
X235609428Y-60354464D02*
X235537999Y-60354464D01*
X235537999Y-60354464D02*
X235466571Y-60390178D01*
X235466571Y-60390178D02*
X235418952Y-60461607D01*
X235418952Y-60461607D02*
X235395142Y-60533035D01*
X235395142Y-60533035D02*
X235371333Y-60675892D01*
X235371333Y-60675892D02*
X235371333Y-60783035D01*
X235371333Y-60783035D02*
X235395142Y-60925892D01*
X235395142Y-60925892D02*
X235418952Y-60997321D01*
X235418952Y-60997321D02*
X235466571Y-61068750D01*
X235466571Y-61068750D02*
X235537999Y-61104464D01*
X235537999Y-61104464D02*
X235585618Y-61104464D01*
X235585618Y-61104464D02*
X235657047Y-61068750D01*
X235657047Y-61068750D02*
X235680856Y-61033035D01*
X235680856Y-61033035D02*
X235680856Y-60783035D01*
X235680856Y-60783035D02*
X235585618Y-60783035D01*
X235895142Y-61104464D02*
X235895142Y-60354464D01*
X235895142Y-60354464D02*
X236180856Y-61104464D01*
X236180856Y-61104464D02*
X236180856Y-60354464D01*
X236418952Y-61104464D02*
X236418952Y-60354464D01*
X236418952Y-60354464D02*
X236538000Y-60354464D01*
X236538000Y-60354464D02*
X236609428Y-60390178D01*
X236609428Y-60390178D02*
X236657047Y-60461607D01*
X236657047Y-60461607D02*
X236680857Y-60533035D01*
X236680857Y-60533035D02*
X236704666Y-60675892D01*
X236704666Y-60675892D02*
X236704666Y-60783035D01*
X236704666Y-60783035D02*
X236680857Y-60925892D01*
X236680857Y-60925892D02*
X236657047Y-60997321D01*
X236657047Y-60997321D02*
X236609428Y-61068750D01*
X236609428Y-61068750D02*
X236538000Y-61104464D01*
X236538000Y-61104464D02*
X236418952Y-61104464D01*
X224162761Y-53384464D02*
X223996095Y-53027321D01*
X223877047Y-53384464D02*
X223877047Y-52634464D01*
X223877047Y-52634464D02*
X224067523Y-52634464D01*
X224067523Y-52634464D02*
X224115142Y-52670178D01*
X224115142Y-52670178D02*
X224138952Y-52705892D01*
X224138952Y-52705892D02*
X224162761Y-52777321D01*
X224162761Y-52777321D02*
X224162761Y-52884464D01*
X224162761Y-52884464D02*
X224138952Y-52955892D01*
X224138952Y-52955892D02*
X224115142Y-52991607D01*
X224115142Y-52991607D02*
X224067523Y-53027321D01*
X224067523Y-53027321D02*
X223877047Y-53027321D01*
X224353238Y-53170178D02*
X224591333Y-53170178D01*
X224305619Y-53384464D02*
X224472285Y-52634464D01*
X224472285Y-52634464D02*
X224638952Y-53384464D01*
X224757999Y-52634464D02*
X224877047Y-53384464D01*
X224877047Y-53384464D02*
X224972285Y-52848750D01*
X224972285Y-52848750D02*
X225067523Y-53384464D01*
X225067523Y-53384464D02*
X225186571Y-52634464D01*
D13*
X237425895Y-50742464D02*
X237542009Y-50781169D01*
X237542009Y-50781169D02*
X237580714Y-50819873D01*
X237580714Y-50819873D02*
X237619418Y-50897283D01*
X237619418Y-50897283D02*
X237619418Y-51013397D01*
X237619418Y-51013397D02*
X237580714Y-51090807D01*
X237580714Y-51090807D02*
X237542009Y-51129512D01*
X237542009Y-51129512D02*
X237464599Y-51168216D01*
X237464599Y-51168216D02*
X237154961Y-51168216D01*
X237154961Y-51168216D02*
X237154961Y-50355416D01*
X237154961Y-50355416D02*
X237425895Y-50355416D01*
X237425895Y-50355416D02*
X237503304Y-50394121D01*
X237503304Y-50394121D02*
X237542009Y-50432826D01*
X237542009Y-50432826D02*
X237580714Y-50510235D01*
X237580714Y-50510235D02*
X237580714Y-50587645D01*
X237580714Y-50587645D02*
X237542009Y-50665054D01*
X237542009Y-50665054D02*
X237503304Y-50703759D01*
X237503304Y-50703759D02*
X237425895Y-50742464D01*
X237425895Y-50742464D02*
X237154961Y-50742464D01*
X237967761Y-50858578D02*
X238587038Y-50858578D01*
X238277399Y-51168216D02*
X238277399Y-50548940D01*
X221804895Y-50742464D02*
X221921009Y-50781169D01*
X221921009Y-50781169D02*
X221959714Y-50819873D01*
X221959714Y-50819873D02*
X221998418Y-50897283D01*
X221998418Y-50897283D02*
X221998418Y-51013397D01*
X221998418Y-51013397D02*
X221959714Y-51090807D01*
X221959714Y-51090807D02*
X221921009Y-51129512D01*
X221921009Y-51129512D02*
X221843599Y-51168216D01*
X221843599Y-51168216D02*
X221533961Y-51168216D01*
X221533961Y-51168216D02*
X221533961Y-50355416D01*
X221533961Y-50355416D02*
X221804895Y-50355416D01*
X221804895Y-50355416D02*
X221882304Y-50394121D01*
X221882304Y-50394121D02*
X221921009Y-50432826D01*
X221921009Y-50432826D02*
X221959714Y-50510235D01*
X221959714Y-50510235D02*
X221959714Y-50587645D01*
X221959714Y-50587645D02*
X221921009Y-50665054D01*
X221921009Y-50665054D02*
X221882304Y-50703759D01*
X221882304Y-50703759D02*
X221804895Y-50742464D01*
X221804895Y-50742464D02*
X221533961Y-50742464D01*
X222346761Y-50858578D02*
X222966038Y-50858578D01*
D12*
X24175047Y-55280178D02*
X24127428Y-55244464D01*
X24127428Y-55244464D02*
X24055999Y-55244464D01*
X24055999Y-55244464D02*
X23984571Y-55280178D01*
X23984571Y-55280178D02*
X23936952Y-55351607D01*
X23936952Y-55351607D02*
X23913142Y-55423035D01*
X23913142Y-55423035D02*
X23889333Y-55565892D01*
X23889333Y-55565892D02*
X23889333Y-55673035D01*
X23889333Y-55673035D02*
X23913142Y-55815892D01*
X23913142Y-55815892D02*
X23936952Y-55887321D01*
X23936952Y-55887321D02*
X23984571Y-55958750D01*
X23984571Y-55958750D02*
X24055999Y-55994464D01*
X24055999Y-55994464D02*
X24103618Y-55994464D01*
X24103618Y-55994464D02*
X24175047Y-55958750D01*
X24175047Y-55958750D02*
X24198856Y-55923035D01*
X24198856Y-55923035D02*
X24198856Y-55673035D01*
X24198856Y-55673035D02*
X24103618Y-55673035D01*
X24413142Y-55994464D02*
X24413142Y-55244464D01*
X24413142Y-55244464D02*
X24698856Y-55994464D01*
X24698856Y-55994464D02*
X24698856Y-55244464D01*
X24936952Y-55994464D02*
X24936952Y-55244464D01*
X24936952Y-55244464D02*
X25056000Y-55244464D01*
X25056000Y-55244464D02*
X25127428Y-55280178D01*
X25127428Y-55280178D02*
X25175047Y-55351607D01*
X25175047Y-55351607D02*
X25198857Y-55423035D01*
X25198857Y-55423035D02*
X25222666Y-55565892D01*
X25222666Y-55565892D02*
X25222666Y-55673035D01*
X25222666Y-55673035D02*
X25198857Y-55815892D01*
X25198857Y-55815892D02*
X25175047Y-55887321D01*
X25175047Y-55887321D02*
X25127428Y-55958750D01*
X25127428Y-55958750D02*
X25056000Y-55994464D01*
X25056000Y-55994464D02*
X24936952Y-55994464D01*
D11*
X27829571Y-48954724D02*
X27829571Y-48204724D01*
X27829571Y-48204724D02*
X28079571Y-48740438D01*
X28079571Y-48740438D02*
X28329571Y-48204724D01*
X28329571Y-48204724D02*
X28329571Y-48954724D01*
X28686714Y-48954724D02*
X28686714Y-48454724D01*
X28686714Y-48204724D02*
X28651000Y-48240438D01*
X28651000Y-48240438D02*
X28686714Y-48276152D01*
X28686714Y-48276152D02*
X28722428Y-48240438D01*
X28722428Y-48240438D02*
X28686714Y-48204724D01*
X28686714Y-48204724D02*
X28686714Y-48276152D01*
X29365286Y-48919010D02*
X29293857Y-48954724D01*
X29293857Y-48954724D02*
X29151000Y-48954724D01*
X29151000Y-48954724D02*
X29079571Y-48919010D01*
X29079571Y-48919010D02*
X29043857Y-48883295D01*
X29043857Y-48883295D02*
X29008143Y-48811867D01*
X29008143Y-48811867D02*
X29008143Y-48597581D01*
X29008143Y-48597581D02*
X29043857Y-48526152D01*
X29043857Y-48526152D02*
X29079571Y-48490438D01*
X29079571Y-48490438D02*
X29151000Y-48454724D01*
X29151000Y-48454724D02*
X29293857Y-48454724D01*
X29293857Y-48454724D02*
X29365286Y-48490438D01*
X29686714Y-48954724D02*
X29686714Y-48454724D01*
X29686714Y-48597581D02*
X29722428Y-48526152D01*
X29722428Y-48526152D02*
X29758143Y-48490438D01*
X29758143Y-48490438D02*
X29829571Y-48454724D01*
X29829571Y-48454724D02*
X29901000Y-48454724D01*
X30258143Y-48954724D02*
X30186714Y-48919010D01*
X30186714Y-48919010D02*
X30151000Y-48883295D01*
X30151000Y-48883295D02*
X30115286Y-48811867D01*
X30115286Y-48811867D02*
X30115286Y-48597581D01*
X30115286Y-48597581D02*
X30151000Y-48526152D01*
X30151000Y-48526152D02*
X30186714Y-48490438D01*
X30186714Y-48490438D02*
X30258143Y-48454724D01*
X30258143Y-48454724D02*
X30365286Y-48454724D01*
X30365286Y-48454724D02*
X30436714Y-48490438D01*
X30436714Y-48490438D02*
X30472429Y-48526152D01*
X30472429Y-48526152D02*
X30508143Y-48597581D01*
X30508143Y-48597581D02*
X30508143Y-48811867D01*
X30508143Y-48811867D02*
X30472429Y-48883295D01*
X30472429Y-48883295D02*
X30436714Y-48919010D01*
X30436714Y-48919010D02*
X30365286Y-48954724D01*
X30365286Y-48954724D02*
X30258143Y-48954724D01*
X30829571Y-48204724D02*
X30829571Y-48811867D01*
X30829571Y-48811867D02*
X30865285Y-48883295D01*
X30865285Y-48883295D02*
X30901000Y-48919010D01*
X30901000Y-48919010D02*
X30972428Y-48954724D01*
X30972428Y-48954724D02*
X31115285Y-48954724D01*
X31115285Y-48954724D02*
X31186714Y-48919010D01*
X31186714Y-48919010D02*
X31222428Y-48883295D01*
X31222428Y-48883295D02*
X31258142Y-48811867D01*
X31258142Y-48811867D02*
X31258142Y-48204724D01*
X31579571Y-48919010D02*
X31686714Y-48954724D01*
X31686714Y-48954724D02*
X31865285Y-48954724D01*
X31865285Y-48954724D02*
X31936714Y-48919010D01*
X31936714Y-48919010D02*
X31972428Y-48883295D01*
X31972428Y-48883295D02*
X32008142Y-48811867D01*
X32008142Y-48811867D02*
X32008142Y-48740438D01*
X32008142Y-48740438D02*
X31972428Y-48669010D01*
X31972428Y-48669010D02*
X31936714Y-48633295D01*
X31936714Y-48633295D02*
X31865285Y-48597581D01*
X31865285Y-48597581D02*
X31722428Y-48561867D01*
X31722428Y-48561867D02*
X31650999Y-48526152D01*
X31650999Y-48526152D02*
X31615285Y-48490438D01*
X31615285Y-48490438D02*
X31579571Y-48419010D01*
X31579571Y-48419010D02*
X31579571Y-48347581D01*
X31579571Y-48347581D02*
X31615285Y-48276152D01*
X31615285Y-48276152D02*
X31650999Y-48240438D01*
X31650999Y-48240438D02*
X31722428Y-48204724D01*
X31722428Y-48204724D02*
X31900999Y-48204724D01*
X31900999Y-48204724D02*
X32008142Y-48240438D01*
X32579571Y-48561867D02*
X32686714Y-48597581D01*
X32686714Y-48597581D02*
X32722428Y-48633295D01*
X32722428Y-48633295D02*
X32758142Y-48704724D01*
X32758142Y-48704724D02*
X32758142Y-48811867D01*
X32758142Y-48811867D02*
X32722428Y-48883295D01*
X32722428Y-48883295D02*
X32686714Y-48919010D01*
X32686714Y-48919010D02*
X32615285Y-48954724D01*
X32615285Y-48954724D02*
X32329571Y-48954724D01*
X32329571Y-48954724D02*
X32329571Y-48204724D01*
X32329571Y-48204724D02*
X32579571Y-48204724D01*
X32579571Y-48204724D02*
X32651000Y-48240438D01*
X32651000Y-48240438D02*
X32686714Y-48276152D01*
X32686714Y-48276152D02*
X32722428Y-48347581D01*
X32722428Y-48347581D02*
X32722428Y-48419010D01*
X32722428Y-48419010D02*
X32686714Y-48490438D01*
X32686714Y-48490438D02*
X32651000Y-48526152D01*
X32651000Y-48526152D02*
X32579571Y-48561867D01*
X32579571Y-48561867D02*
X32329571Y-48561867D01*
D12*
X35707047Y-57810178D02*
X35659428Y-57774464D01*
X35659428Y-57774464D02*
X35587999Y-57774464D01*
X35587999Y-57774464D02*
X35516571Y-57810178D01*
X35516571Y-57810178D02*
X35468952Y-57881607D01*
X35468952Y-57881607D02*
X35445142Y-57953035D01*
X35445142Y-57953035D02*
X35421333Y-58095892D01*
X35421333Y-58095892D02*
X35421333Y-58203035D01*
X35421333Y-58203035D02*
X35445142Y-58345892D01*
X35445142Y-58345892D02*
X35468952Y-58417321D01*
X35468952Y-58417321D02*
X35516571Y-58488750D01*
X35516571Y-58488750D02*
X35587999Y-58524464D01*
X35587999Y-58524464D02*
X35635618Y-58524464D01*
X35635618Y-58524464D02*
X35707047Y-58488750D01*
X35707047Y-58488750D02*
X35730856Y-58453035D01*
X35730856Y-58453035D02*
X35730856Y-58203035D01*
X35730856Y-58203035D02*
X35635618Y-58203035D01*
X35945142Y-58524464D02*
X35945142Y-57774464D01*
X35945142Y-57774464D02*
X36230856Y-58524464D01*
X36230856Y-58524464D02*
X36230856Y-57774464D01*
X36468952Y-58524464D02*
X36468952Y-57774464D01*
X36468952Y-57774464D02*
X36588000Y-57774464D01*
X36588000Y-57774464D02*
X36659428Y-57810178D01*
X36659428Y-57810178D02*
X36707047Y-57881607D01*
X36707047Y-57881607D02*
X36730857Y-57953035D01*
X36730857Y-57953035D02*
X36754666Y-58095892D01*
X36754666Y-58095892D02*
X36754666Y-58203035D01*
X36754666Y-58203035D02*
X36730857Y-58345892D01*
X36730857Y-58345892D02*
X36707047Y-58417321D01*
X36707047Y-58417321D02*
X36659428Y-58488750D01*
X36659428Y-58488750D02*
X36588000Y-58524464D01*
X36588000Y-58524464D02*
X36468952Y-58524464D01*
X24310761Y-53384464D02*
X24144095Y-53027321D01*
X24025047Y-53384464D02*
X24025047Y-52634464D01*
X24025047Y-52634464D02*
X24215523Y-52634464D01*
X24215523Y-52634464D02*
X24263142Y-52670178D01*
X24263142Y-52670178D02*
X24286952Y-52705892D01*
X24286952Y-52705892D02*
X24310761Y-52777321D01*
X24310761Y-52777321D02*
X24310761Y-52884464D01*
X24310761Y-52884464D02*
X24286952Y-52955892D01*
X24286952Y-52955892D02*
X24263142Y-52991607D01*
X24263142Y-52991607D02*
X24215523Y-53027321D01*
X24215523Y-53027321D02*
X24025047Y-53027321D01*
X24501238Y-53170178D02*
X24739333Y-53170178D01*
X24453619Y-53384464D02*
X24620285Y-52634464D01*
X24620285Y-52634464D02*
X24786952Y-53384464D01*
X24905999Y-52634464D02*
X25025047Y-53384464D01*
X25025047Y-53384464D02*
X25120285Y-52848750D01*
X25120285Y-52848750D02*
X25215523Y-53384464D01*
X25215523Y-53384464D02*
X25334571Y-52634464D01*
X35687047Y-60390178D02*
X35639428Y-60354464D01*
X35639428Y-60354464D02*
X35567999Y-60354464D01*
X35567999Y-60354464D02*
X35496571Y-60390178D01*
X35496571Y-60390178D02*
X35448952Y-60461607D01*
X35448952Y-60461607D02*
X35425142Y-60533035D01*
X35425142Y-60533035D02*
X35401333Y-60675892D01*
X35401333Y-60675892D02*
X35401333Y-60783035D01*
X35401333Y-60783035D02*
X35425142Y-60925892D01*
X35425142Y-60925892D02*
X35448952Y-60997321D01*
X35448952Y-60997321D02*
X35496571Y-61068750D01*
X35496571Y-61068750D02*
X35567999Y-61104464D01*
X35567999Y-61104464D02*
X35615618Y-61104464D01*
X35615618Y-61104464D02*
X35687047Y-61068750D01*
X35687047Y-61068750D02*
X35710856Y-61033035D01*
X35710856Y-61033035D02*
X35710856Y-60783035D01*
X35710856Y-60783035D02*
X35615618Y-60783035D01*
X35925142Y-61104464D02*
X35925142Y-60354464D01*
X35925142Y-60354464D02*
X36210856Y-61104464D01*
X36210856Y-61104464D02*
X36210856Y-60354464D01*
X36448952Y-61104464D02*
X36448952Y-60354464D01*
X36448952Y-60354464D02*
X36568000Y-60354464D01*
X36568000Y-60354464D02*
X36639428Y-60390178D01*
X36639428Y-60390178D02*
X36687047Y-60461607D01*
X36687047Y-60461607D02*
X36710857Y-60533035D01*
X36710857Y-60533035D02*
X36734666Y-60675892D01*
X36734666Y-60675892D02*
X36734666Y-60783035D01*
X36734666Y-60783035D02*
X36710857Y-60925892D01*
X36710857Y-60925892D02*
X36687047Y-60997321D01*
X36687047Y-60997321D02*
X36639428Y-61068750D01*
X36639428Y-61068750D02*
X36568000Y-61104464D01*
X36568000Y-61104464D02*
X36448952Y-61104464D01*
D13*
X37654895Y-50742464D02*
X37771009Y-50781169D01*
X37771009Y-50781169D02*
X37809714Y-50819873D01*
X37809714Y-50819873D02*
X37848418Y-50897283D01*
X37848418Y-50897283D02*
X37848418Y-51013397D01*
X37848418Y-51013397D02*
X37809714Y-51090807D01*
X37809714Y-51090807D02*
X37771009Y-51129512D01*
X37771009Y-51129512D02*
X37693599Y-51168216D01*
X37693599Y-51168216D02*
X37383961Y-51168216D01*
X37383961Y-51168216D02*
X37383961Y-50355416D01*
X37383961Y-50355416D02*
X37654895Y-50355416D01*
X37654895Y-50355416D02*
X37732304Y-50394121D01*
X37732304Y-50394121D02*
X37771009Y-50432826D01*
X37771009Y-50432826D02*
X37809714Y-50510235D01*
X37809714Y-50510235D02*
X37809714Y-50587645D01*
X37809714Y-50587645D02*
X37771009Y-50665054D01*
X37771009Y-50665054D02*
X37732304Y-50703759D01*
X37732304Y-50703759D02*
X37654895Y-50742464D01*
X37654895Y-50742464D02*
X37383961Y-50742464D01*
X38196761Y-50858578D02*
X38816038Y-50858578D01*
X22287895Y-50742464D02*
X22404009Y-50781169D01*
X22404009Y-50781169D02*
X22442714Y-50819873D01*
X22442714Y-50819873D02*
X22481418Y-50897283D01*
X22481418Y-50897283D02*
X22481418Y-51013397D01*
X22481418Y-51013397D02*
X22442714Y-51090807D01*
X22442714Y-51090807D02*
X22404009Y-51129512D01*
X22404009Y-51129512D02*
X22326599Y-51168216D01*
X22326599Y-51168216D02*
X22016961Y-51168216D01*
X22016961Y-51168216D02*
X22016961Y-50355416D01*
X22016961Y-50355416D02*
X22287895Y-50355416D01*
X22287895Y-50355416D02*
X22365304Y-50394121D01*
X22365304Y-50394121D02*
X22404009Y-50432826D01*
X22404009Y-50432826D02*
X22442714Y-50510235D01*
X22442714Y-50510235D02*
X22442714Y-50587645D01*
X22442714Y-50587645D02*
X22404009Y-50665054D01*
X22404009Y-50665054D02*
X22365304Y-50703759D01*
X22365304Y-50703759D02*
X22287895Y-50742464D01*
X22287895Y-50742464D02*
X22016961Y-50742464D01*
X22829761Y-50858578D02*
X23449038Y-50858578D01*
X23139399Y-51168216D02*
X23139399Y-50548940D01*
%TO.C,U1*%
X221278000Y-49264000D02*
X221278000Y-50264000D01*
X221278000Y-49264000D02*
X222278000Y-49264000D01*
X221278000Y-81264000D02*
X221278000Y-82314000D01*
X221278000Y-82314000D02*
X222278000Y-82314000D01*
X226428000Y-46364000D02*
X226428000Y-47664000D01*
X226428000Y-47664000D02*
X233928000Y-47664000D01*
X229678000Y-46714000D02*
X230678000Y-46714000D01*
X229828000Y-46864000D02*
X230528000Y-46864000D01*
X229928000Y-47014000D02*
X230428000Y-47014000D01*
X230028000Y-47164000D02*
X230328000Y-47164000D01*
X230178000Y-47364000D02*
X229678000Y-46714000D01*
X230678000Y-46714000D02*
X230178000Y-47364000D01*
X233928000Y-46364000D02*
X226428000Y-46364000D01*
X233928000Y-47664000D02*
X233928000Y-46364000D01*
X239078000Y-49264000D02*
X238128000Y-49264000D01*
X239078000Y-49264000D02*
X239078000Y-50264000D01*
X239078000Y-81314000D02*
X239078000Y-82314000D01*
X239078000Y-82314000D02*
X238068000Y-82314000D01*
%TO.C,J2*%
X224374000Y-89102000D02*
X224374000Y-83002000D01*
X236474000Y-83002000D02*
X224374000Y-83002000D01*
X236474000Y-83252000D02*
X238474000Y-83252000D01*
X236474000Y-88852000D02*
X238474000Y-88852000D01*
X236474000Y-89102000D02*
X224374000Y-89102000D01*
X236474000Y-89102000D02*
X236474000Y-83002000D01*
X238474000Y-88852000D02*
X238474000Y-83252000D01*
D14*
%TO.C,mouse-bite-2mm-slot*%
X129285481Y-77013748D02*
G75*
G02*
X131285481Y-77013748I1000000J0D01*
G01*
X131285481Y-71171748D02*
G75*
G02*
X129285481Y-71171748I-1000000J0D01*
G01*
D11*
%TO.C,RSW1*%
X216790000Y-81658000D02*
X220090000Y-81658000D01*
X216790000Y-81958000D02*
X216790000Y-81658000D01*
X216790000Y-84158000D02*
X216790000Y-84458000D01*
X216790000Y-84458000D02*
X220090000Y-84458000D01*
X220090000Y-81658000D02*
X220090000Y-81958000D01*
X220090000Y-84458000D02*
X220090000Y-84158000D01*
D13*
%TO.C,B+*%
X234966000Y-49800000D02*
X234966000Y-51800000D01*
X234966000Y-51800000D02*
X236966000Y-51800000D01*
X236966000Y-49800000D02*
X234966000Y-49800000D01*
X236966000Y-51800000D02*
X236966000Y-49800000D01*
%TO.C,B-*%
X223282000Y-49800000D02*
X223282000Y-51800000D01*
X223282000Y-51800000D02*
X225282000Y-51800000D01*
X225282000Y-49800000D02*
X223282000Y-49800000D01*
X225282000Y-51800000D02*
X225282000Y-49800000D01*
%TO.C,U2*%
X21426000Y-49264000D02*
X21426000Y-50264000D01*
X21426000Y-49264000D02*
X22426000Y-49264000D01*
X21426000Y-81264000D02*
X21426000Y-82314000D01*
X21426000Y-82314000D02*
X22426000Y-82314000D01*
X26576000Y-46364000D02*
X26576000Y-47664000D01*
X26576000Y-47664000D02*
X34076000Y-47664000D01*
X29826000Y-46714000D02*
X30826000Y-46714000D01*
X29976000Y-46864000D02*
X30676000Y-46864000D01*
X30076000Y-47014000D02*
X30576000Y-47014000D01*
X30176000Y-47164000D02*
X30476000Y-47164000D01*
X30326000Y-47364000D02*
X29826000Y-46714000D01*
X30826000Y-46714000D02*
X30326000Y-47364000D01*
X34076000Y-46364000D02*
X26576000Y-46364000D01*
X34076000Y-47664000D02*
X34076000Y-46364000D01*
X39226000Y-49264000D02*
X38276000Y-49264000D01*
X39226000Y-49264000D02*
X39226000Y-50264000D01*
X39226000Y-81314000D02*
X39226000Y-82314000D01*
X39226000Y-82314000D02*
X38216000Y-82314000D01*
%TO.C,J1*%
X21876000Y-83252000D02*
X21876000Y-88852000D01*
X23876000Y-83002000D02*
X23876000Y-89102000D01*
X23876000Y-83002000D02*
X35976000Y-83002000D01*
X23876000Y-83252000D02*
X21876000Y-83252000D01*
X23876000Y-88852000D02*
X21876000Y-88852000D01*
X23876000Y-89102000D02*
X35976000Y-89102000D01*
X35976000Y-83002000D02*
X35976000Y-89102000D01*
%TO.C,B-*%
X35068000Y-49800000D02*
X35068000Y-51800000D01*
X35068000Y-51800000D02*
X37068000Y-51800000D01*
X37068000Y-49800000D02*
X35068000Y-49800000D01*
X37068000Y-51800000D02*
X37068000Y-49800000D01*
%TO.C,B+*%
X23638000Y-49800000D02*
X23638000Y-51800000D01*
X23638000Y-51800000D02*
X25638000Y-51800000D01*
X25638000Y-49800000D02*
X23638000Y-49800000D01*
X25638000Y-51800000D02*
X25638000Y-49800000D01*
D11*
%TO.C,RSW2*%
X40514000Y-81404000D02*
X43814000Y-81404000D01*
X40514000Y-81704000D02*
X40514000Y-81404000D01*
X40514000Y-83904000D02*
X40514000Y-84204000D01*
X40514000Y-84204000D02*
X43814000Y-84204000D01*
X43814000Y-81404000D02*
X43814000Y-81704000D01*
X43814000Y-84204000D02*
X43814000Y-83904000D01*
D14*
%TO.C,mouse-bite-2mm-slot*%
X129353938Y-53187000D02*
G75*
G02*
X131353938Y-53187000I1000000J0D01*
G01*
X131353938Y-47345000D02*
G75*
G02*
X129353938Y-47345000I-1000000J0D01*
G01*
%TD*%
D15*
%TO.C,U1*%
X237789400Y-53086000D03*
X237789400Y-55626000D03*
X237789400Y-58166000D03*
X237789400Y-60706000D03*
X237789400Y-63246000D03*
X237789400Y-65786000D03*
X237789400Y-68326000D03*
X237789400Y-70866000D03*
X237789400Y-73406000D03*
X237789400Y-75946000D03*
X237789400Y-78486000D03*
X237789400Y-81026000D03*
X222569400Y-81026000D03*
X222569400Y-78486000D03*
X222569400Y-75946000D03*
X222569400Y-73406000D03*
X222569400Y-70866000D03*
X222569400Y-68326000D03*
X222569400Y-65786000D03*
X222569400Y-63246000D03*
X222569400Y-60706000D03*
X222569400Y-58166000D03*
X222569400Y-55626000D03*
X222569400Y-53086000D03*
%TD*%
D16*
%TO.C,B+*%
X235966000Y-50800000D03*
%TD*%
%TO.C,B-*%
X224282000Y-50800000D03*
%TD*%
D15*
%TO.C,U2*%
X37937400Y-53086000D03*
X37937400Y-55626000D03*
X37937400Y-58166000D03*
X37937400Y-60706000D03*
X37937400Y-63246000D03*
X37937400Y-65786000D03*
X37937400Y-68326000D03*
X37937400Y-70866000D03*
X37937400Y-73406000D03*
X37937400Y-75946000D03*
X37937400Y-78486000D03*
X37937400Y-81026000D03*
X22717400Y-81026000D03*
X22717400Y-78486000D03*
X22717400Y-75946000D03*
X22717400Y-73406000D03*
X22717400Y-70866000D03*
X22717400Y-68326000D03*
X22717400Y-65786000D03*
X22717400Y-63246000D03*
X22717400Y-60706000D03*
X22717400Y-58166000D03*
X22717400Y-55626000D03*
X22717400Y-53086000D03*
%TD*%
D16*
%TO.C,B-*%
X36068000Y-50800000D03*
%TD*%
%TO.C,B+*%
X24638000Y-50800000D03*
%TD*%
M02*
