%TF.GenerationSoftware,KiCad,Pcbnew,9.0.2*%
%TF.CreationDate,2025-05-16T22:32:54+01:00*%
%TF.ProjectId,my_sweepv2,6d795f73-7765-4657-9076-322e6b696361,rev?*%
%TF.SameCoordinates,Original*%
%TF.FileFunction,Legend,Bot*%
%TF.FilePolarity,Positive*%
%FSLAX46Y46*%
G04 Gerber Fmt 4.6, Leading zero omitted, Abs format (unit mm)*
G04 Created by KiCad (PCBNEW 9.0.2) date 2025-05-16 22:32:54*
%MOMM*%
%LPD*%
G01*
G04 APERTURE LIST*
%ADD10C,0.120000*%
%ADD11C,0.125000*%
%ADD12C,0.150000*%
G04 APERTURE END LIST*
D10*
X27178000Y-50419000D02*
X33909000Y-50419000D01*
X33909000Y-53340000D01*
X27178000Y-53340000D01*
X27178000Y-50419000D01*
X226822000Y-50419000D02*
X233426000Y-50419000D01*
X233426000Y-53340000D01*
X226822000Y-53340000D01*
X226822000Y-50419000D01*
D11*
X224788952Y-55310178D02*
X224836571Y-55274464D01*
X224836571Y-55274464D02*
X224908000Y-55274464D01*
X224908000Y-55274464D02*
X224979428Y-55310178D01*
X224979428Y-55310178D02*
X225027047Y-55381607D01*
X225027047Y-55381607D02*
X225050857Y-55453035D01*
X225050857Y-55453035D02*
X225074666Y-55595892D01*
X225074666Y-55595892D02*
X225074666Y-55703035D01*
X225074666Y-55703035D02*
X225050857Y-55845892D01*
X225050857Y-55845892D02*
X225027047Y-55917321D01*
X225027047Y-55917321D02*
X224979428Y-55988750D01*
X224979428Y-55988750D02*
X224908000Y-56024464D01*
X224908000Y-56024464D02*
X224860381Y-56024464D01*
X224860381Y-56024464D02*
X224788952Y-55988750D01*
X224788952Y-55988750D02*
X224765143Y-55953035D01*
X224765143Y-55953035D02*
X224765143Y-55703035D01*
X224765143Y-55703035D02*
X224860381Y-55703035D01*
X224550857Y-56024464D02*
X224550857Y-55274464D01*
X224550857Y-55274464D02*
X224265143Y-56024464D01*
X224265143Y-56024464D02*
X224265143Y-55274464D01*
X224027047Y-56024464D02*
X224027047Y-55274464D01*
X224027047Y-55274464D02*
X223907999Y-55274464D01*
X223907999Y-55274464D02*
X223836571Y-55310178D01*
X223836571Y-55310178D02*
X223788952Y-55381607D01*
X223788952Y-55381607D02*
X223765142Y-55453035D01*
X223765142Y-55453035D02*
X223741333Y-55595892D01*
X223741333Y-55595892D02*
X223741333Y-55703035D01*
X223741333Y-55703035D02*
X223765142Y-55845892D01*
X223765142Y-55845892D02*
X223788952Y-55917321D01*
X223788952Y-55917321D02*
X223836571Y-55988750D01*
X223836571Y-55988750D02*
X223907999Y-56024464D01*
X223907999Y-56024464D02*
X224027047Y-56024464D01*
X236418952Y-60420178D02*
X236466571Y-60384464D01*
X236466571Y-60384464D02*
X236538000Y-60384464D01*
X236538000Y-60384464D02*
X236609428Y-60420178D01*
X236609428Y-60420178D02*
X236657047Y-60491607D01*
X236657047Y-60491607D02*
X236680857Y-60563035D01*
X236680857Y-60563035D02*
X236704666Y-60705892D01*
X236704666Y-60705892D02*
X236704666Y-60813035D01*
X236704666Y-60813035D02*
X236680857Y-60955892D01*
X236680857Y-60955892D02*
X236657047Y-61027321D01*
X236657047Y-61027321D02*
X236609428Y-61098750D01*
X236609428Y-61098750D02*
X236538000Y-61134464D01*
X236538000Y-61134464D02*
X236490381Y-61134464D01*
X236490381Y-61134464D02*
X236418952Y-61098750D01*
X236418952Y-61098750D02*
X236395143Y-61063035D01*
X236395143Y-61063035D02*
X236395143Y-60813035D01*
X236395143Y-60813035D02*
X236490381Y-60813035D01*
X236180857Y-61134464D02*
X236180857Y-60384464D01*
X236180857Y-60384464D02*
X235895143Y-61134464D01*
X235895143Y-61134464D02*
X235895143Y-60384464D01*
X235657047Y-61134464D02*
X235657047Y-60384464D01*
X235657047Y-60384464D02*
X235537999Y-60384464D01*
X235537999Y-60384464D02*
X235466571Y-60420178D01*
X235466571Y-60420178D02*
X235418952Y-60491607D01*
X235418952Y-60491607D02*
X235395142Y-60563035D01*
X235395142Y-60563035D02*
X235371333Y-60705892D01*
X235371333Y-60705892D02*
X235371333Y-60813035D01*
X235371333Y-60813035D02*
X235395142Y-60955892D01*
X235395142Y-60955892D02*
X235418952Y-61027321D01*
X235418952Y-61027321D02*
X235466571Y-61098750D01*
X235466571Y-61098750D02*
X235537999Y-61134464D01*
X235537999Y-61134464D02*
X235657047Y-61134464D01*
X224883238Y-53384464D02*
X225049904Y-53027321D01*
X225168952Y-53384464D02*
X225168952Y-52634464D01*
X225168952Y-52634464D02*
X224978476Y-52634464D01*
X224978476Y-52634464D02*
X224930857Y-52670178D01*
X224930857Y-52670178D02*
X224907047Y-52705892D01*
X224907047Y-52705892D02*
X224883238Y-52777321D01*
X224883238Y-52777321D02*
X224883238Y-52884464D01*
X224883238Y-52884464D02*
X224907047Y-52955892D01*
X224907047Y-52955892D02*
X224930857Y-52991607D01*
X224930857Y-52991607D02*
X224978476Y-53027321D01*
X224978476Y-53027321D02*
X225168952Y-53027321D01*
X224692761Y-53170178D02*
X224454666Y-53170178D01*
X224740380Y-53384464D02*
X224573714Y-52634464D01*
X224573714Y-52634464D02*
X224407047Y-53384464D01*
X224288000Y-52634464D02*
X224168952Y-53384464D01*
X224168952Y-53384464D02*
X224073714Y-52848750D01*
X224073714Y-52848750D02*
X223978476Y-53384464D01*
X223978476Y-53384464D02*
X223859429Y-52634464D01*
X236438952Y-57840178D02*
X236486571Y-57804464D01*
X236486571Y-57804464D02*
X236558000Y-57804464D01*
X236558000Y-57804464D02*
X236629428Y-57840178D01*
X236629428Y-57840178D02*
X236677047Y-57911607D01*
X236677047Y-57911607D02*
X236700857Y-57983035D01*
X236700857Y-57983035D02*
X236724666Y-58125892D01*
X236724666Y-58125892D02*
X236724666Y-58233035D01*
X236724666Y-58233035D02*
X236700857Y-58375892D01*
X236700857Y-58375892D02*
X236677047Y-58447321D01*
X236677047Y-58447321D02*
X236629428Y-58518750D01*
X236629428Y-58518750D02*
X236558000Y-58554464D01*
X236558000Y-58554464D02*
X236510381Y-58554464D01*
X236510381Y-58554464D02*
X236438952Y-58518750D01*
X236438952Y-58518750D02*
X236415143Y-58483035D01*
X236415143Y-58483035D02*
X236415143Y-58233035D01*
X236415143Y-58233035D02*
X236510381Y-58233035D01*
X236200857Y-58554464D02*
X236200857Y-57804464D01*
X236200857Y-57804464D02*
X235915143Y-58554464D01*
X235915143Y-58554464D02*
X235915143Y-57804464D01*
X235677047Y-58554464D02*
X235677047Y-57804464D01*
X235677047Y-57804464D02*
X235557999Y-57804464D01*
X235557999Y-57804464D02*
X235486571Y-57840178D01*
X235486571Y-57840178D02*
X235438952Y-57911607D01*
X235438952Y-57911607D02*
X235415142Y-57983035D01*
X235415142Y-57983035D02*
X235391333Y-58125892D01*
X235391333Y-58125892D02*
X235391333Y-58233035D01*
X235391333Y-58233035D02*
X235415142Y-58375892D01*
X235415142Y-58375892D02*
X235438952Y-58447321D01*
X235438952Y-58447321D02*
X235486571Y-58518750D01*
X235486571Y-58518750D02*
X235557999Y-58554464D01*
X235557999Y-58554464D02*
X235677047Y-58554464D01*
D12*
X231885904Y-85560819D02*
X231314476Y-85560819D01*
X231600190Y-86560819D02*
X231600190Y-85560819D01*
X230409714Y-86560819D02*
X230743047Y-86084628D01*
X230981142Y-86560819D02*
X230981142Y-85560819D01*
X230981142Y-85560819D02*
X230600190Y-85560819D01*
X230600190Y-85560819D02*
X230504952Y-85608438D01*
X230504952Y-85608438D02*
X230457333Y-85656057D01*
X230457333Y-85656057D02*
X230409714Y-85751295D01*
X230409714Y-85751295D02*
X230409714Y-85894152D01*
X230409714Y-85894152D02*
X230457333Y-85989390D01*
X230457333Y-85989390D02*
X230504952Y-86037009D01*
X230504952Y-86037009D02*
X230600190Y-86084628D01*
X230600190Y-86084628D02*
X230981142Y-86084628D01*
X229409714Y-86560819D02*
X229743047Y-86084628D01*
X229981142Y-86560819D02*
X229981142Y-85560819D01*
X229981142Y-85560819D02*
X229600190Y-85560819D01*
X229600190Y-85560819D02*
X229504952Y-85608438D01*
X229504952Y-85608438D02*
X229457333Y-85656057D01*
X229457333Y-85656057D02*
X229409714Y-85751295D01*
X229409714Y-85751295D02*
X229409714Y-85894152D01*
X229409714Y-85894152D02*
X229457333Y-85989390D01*
X229457333Y-85989390D02*
X229504952Y-86037009D01*
X229504952Y-86037009D02*
X229600190Y-86084628D01*
X229600190Y-86084628D02*
X229981142Y-86084628D01*
X229028761Y-86513200D02*
X228885904Y-86560819D01*
X228885904Y-86560819D02*
X228647809Y-86560819D01*
X228647809Y-86560819D02*
X228552571Y-86513200D01*
X228552571Y-86513200D02*
X228504952Y-86465580D01*
X228504952Y-86465580D02*
X228457333Y-86370342D01*
X228457333Y-86370342D02*
X228457333Y-86275104D01*
X228457333Y-86275104D02*
X228504952Y-86179866D01*
X228504952Y-86179866D02*
X228552571Y-86132247D01*
X228552571Y-86132247D02*
X228647809Y-86084628D01*
X228647809Y-86084628D02*
X228838285Y-86037009D01*
X228838285Y-86037009D02*
X228933523Y-85989390D01*
X228933523Y-85989390D02*
X228981142Y-85941771D01*
X228981142Y-85941771D02*
X229028761Y-85846533D01*
X229028761Y-85846533D02*
X229028761Y-85751295D01*
X229028761Y-85751295D02*
X228981142Y-85656057D01*
X228981142Y-85656057D02*
X228933523Y-85608438D01*
X228933523Y-85608438D02*
X228838285Y-85560819D01*
X228838285Y-85560819D02*
X228600190Y-85560819D01*
X228600190Y-85560819D02*
X228457333Y-85608438D01*
X220019381Y-83512819D02*
X220352714Y-83036628D01*
X220590809Y-83512819D02*
X220590809Y-82512819D01*
X220590809Y-82512819D02*
X220209857Y-82512819D01*
X220209857Y-82512819D02*
X220114619Y-82560438D01*
X220114619Y-82560438D02*
X220067000Y-82608057D01*
X220067000Y-82608057D02*
X220019381Y-82703295D01*
X220019381Y-82703295D02*
X220019381Y-82846152D01*
X220019381Y-82846152D02*
X220067000Y-82941390D01*
X220067000Y-82941390D02*
X220114619Y-82989009D01*
X220114619Y-82989009D02*
X220209857Y-83036628D01*
X220209857Y-83036628D02*
X220590809Y-83036628D01*
X219590809Y-82989009D02*
X219257476Y-82989009D01*
X219114619Y-83512819D02*
X219590809Y-83512819D01*
X219590809Y-83512819D02*
X219590809Y-82512819D01*
X219590809Y-82512819D02*
X219114619Y-82512819D01*
X218733666Y-83465200D02*
X218590809Y-83512819D01*
X218590809Y-83512819D02*
X218352714Y-83512819D01*
X218352714Y-83512819D02*
X218257476Y-83465200D01*
X218257476Y-83465200D02*
X218209857Y-83417580D01*
X218209857Y-83417580D02*
X218162238Y-83322342D01*
X218162238Y-83322342D02*
X218162238Y-83227104D01*
X218162238Y-83227104D02*
X218209857Y-83131866D01*
X218209857Y-83131866D02*
X218257476Y-83084247D01*
X218257476Y-83084247D02*
X218352714Y-83036628D01*
X218352714Y-83036628D02*
X218543190Y-82989009D01*
X218543190Y-82989009D02*
X218638428Y-82941390D01*
X218638428Y-82941390D02*
X218686047Y-82893771D01*
X218686047Y-82893771D02*
X218733666Y-82798533D01*
X218733666Y-82798533D02*
X218733666Y-82703295D01*
X218733666Y-82703295D02*
X218686047Y-82608057D01*
X218686047Y-82608057D02*
X218638428Y-82560438D01*
X218638428Y-82560438D02*
X218543190Y-82512819D01*
X218543190Y-82512819D02*
X218305095Y-82512819D01*
X218305095Y-82512819D02*
X218162238Y-82560438D01*
X217733666Y-82989009D02*
X217400333Y-82989009D01*
X217257476Y-83512819D02*
X217733666Y-83512819D01*
X217733666Y-83512819D02*
X217733666Y-82512819D01*
X217733666Y-82512819D02*
X217257476Y-82512819D01*
X216971761Y-82512819D02*
X216400333Y-82512819D01*
X216686047Y-83512819D02*
X216686047Y-82512819D01*
D11*
X36468952Y-57840178D02*
X36516571Y-57804464D01*
X36516571Y-57804464D02*
X36588000Y-57804464D01*
X36588000Y-57804464D02*
X36659428Y-57840178D01*
X36659428Y-57840178D02*
X36707047Y-57911607D01*
X36707047Y-57911607D02*
X36730857Y-57983035D01*
X36730857Y-57983035D02*
X36754666Y-58125892D01*
X36754666Y-58125892D02*
X36754666Y-58233035D01*
X36754666Y-58233035D02*
X36730857Y-58375892D01*
X36730857Y-58375892D02*
X36707047Y-58447321D01*
X36707047Y-58447321D02*
X36659428Y-58518750D01*
X36659428Y-58518750D02*
X36588000Y-58554464D01*
X36588000Y-58554464D02*
X36540381Y-58554464D01*
X36540381Y-58554464D02*
X36468952Y-58518750D01*
X36468952Y-58518750D02*
X36445143Y-58483035D01*
X36445143Y-58483035D02*
X36445143Y-58233035D01*
X36445143Y-58233035D02*
X36540381Y-58233035D01*
X36230857Y-58554464D02*
X36230857Y-57804464D01*
X36230857Y-57804464D02*
X35945143Y-58554464D01*
X35945143Y-58554464D02*
X35945143Y-57804464D01*
X35707047Y-58554464D02*
X35707047Y-57804464D01*
X35707047Y-57804464D02*
X35587999Y-57804464D01*
X35587999Y-57804464D02*
X35516571Y-57840178D01*
X35516571Y-57840178D02*
X35468952Y-57911607D01*
X35468952Y-57911607D02*
X35445142Y-57983035D01*
X35445142Y-57983035D02*
X35421333Y-58125892D01*
X35421333Y-58125892D02*
X35421333Y-58233035D01*
X35421333Y-58233035D02*
X35445142Y-58375892D01*
X35445142Y-58375892D02*
X35468952Y-58447321D01*
X35468952Y-58447321D02*
X35516571Y-58518750D01*
X35516571Y-58518750D02*
X35587999Y-58554464D01*
X35587999Y-58554464D02*
X35707047Y-58554464D01*
X36448952Y-60420178D02*
X36496571Y-60384464D01*
X36496571Y-60384464D02*
X36568000Y-60384464D01*
X36568000Y-60384464D02*
X36639428Y-60420178D01*
X36639428Y-60420178D02*
X36687047Y-60491607D01*
X36687047Y-60491607D02*
X36710857Y-60563035D01*
X36710857Y-60563035D02*
X36734666Y-60705892D01*
X36734666Y-60705892D02*
X36734666Y-60813035D01*
X36734666Y-60813035D02*
X36710857Y-60955892D01*
X36710857Y-60955892D02*
X36687047Y-61027321D01*
X36687047Y-61027321D02*
X36639428Y-61098750D01*
X36639428Y-61098750D02*
X36568000Y-61134464D01*
X36568000Y-61134464D02*
X36520381Y-61134464D01*
X36520381Y-61134464D02*
X36448952Y-61098750D01*
X36448952Y-61098750D02*
X36425143Y-61063035D01*
X36425143Y-61063035D02*
X36425143Y-60813035D01*
X36425143Y-60813035D02*
X36520381Y-60813035D01*
X36210857Y-61134464D02*
X36210857Y-60384464D01*
X36210857Y-60384464D02*
X35925143Y-61134464D01*
X35925143Y-61134464D02*
X35925143Y-60384464D01*
X35687047Y-61134464D02*
X35687047Y-60384464D01*
X35687047Y-60384464D02*
X35567999Y-60384464D01*
X35567999Y-60384464D02*
X35496571Y-60420178D01*
X35496571Y-60420178D02*
X35448952Y-60491607D01*
X35448952Y-60491607D02*
X35425142Y-60563035D01*
X35425142Y-60563035D02*
X35401333Y-60705892D01*
X35401333Y-60705892D02*
X35401333Y-60813035D01*
X35401333Y-60813035D02*
X35425142Y-60955892D01*
X35425142Y-60955892D02*
X35448952Y-61027321D01*
X35448952Y-61027321D02*
X35496571Y-61098750D01*
X35496571Y-61098750D02*
X35567999Y-61134464D01*
X35567999Y-61134464D02*
X35687047Y-61134464D01*
X24936952Y-55310178D02*
X24984571Y-55274464D01*
X24984571Y-55274464D02*
X25056000Y-55274464D01*
X25056000Y-55274464D02*
X25127428Y-55310178D01*
X25127428Y-55310178D02*
X25175047Y-55381607D01*
X25175047Y-55381607D02*
X25198857Y-55453035D01*
X25198857Y-55453035D02*
X25222666Y-55595892D01*
X25222666Y-55595892D02*
X25222666Y-55703035D01*
X25222666Y-55703035D02*
X25198857Y-55845892D01*
X25198857Y-55845892D02*
X25175047Y-55917321D01*
X25175047Y-55917321D02*
X25127428Y-55988750D01*
X25127428Y-55988750D02*
X25056000Y-56024464D01*
X25056000Y-56024464D02*
X25008381Y-56024464D01*
X25008381Y-56024464D02*
X24936952Y-55988750D01*
X24936952Y-55988750D02*
X24913143Y-55953035D01*
X24913143Y-55953035D02*
X24913143Y-55703035D01*
X24913143Y-55703035D02*
X25008381Y-55703035D01*
X24698857Y-56024464D02*
X24698857Y-55274464D01*
X24698857Y-55274464D02*
X24413143Y-56024464D01*
X24413143Y-56024464D02*
X24413143Y-55274464D01*
X24175047Y-56024464D02*
X24175047Y-55274464D01*
X24175047Y-55274464D02*
X24055999Y-55274464D01*
X24055999Y-55274464D02*
X23984571Y-55310178D01*
X23984571Y-55310178D02*
X23936952Y-55381607D01*
X23936952Y-55381607D02*
X23913142Y-55453035D01*
X23913142Y-55453035D02*
X23889333Y-55595892D01*
X23889333Y-55595892D02*
X23889333Y-55703035D01*
X23889333Y-55703035D02*
X23913142Y-55845892D01*
X23913142Y-55845892D02*
X23936952Y-55917321D01*
X23936952Y-55917321D02*
X23984571Y-55988750D01*
X23984571Y-55988750D02*
X24055999Y-56024464D01*
X24055999Y-56024464D02*
X24175047Y-56024464D01*
X25031238Y-53384464D02*
X25197904Y-53027321D01*
X25316952Y-53384464D02*
X25316952Y-52634464D01*
X25316952Y-52634464D02*
X25126476Y-52634464D01*
X25126476Y-52634464D02*
X25078857Y-52670178D01*
X25078857Y-52670178D02*
X25055047Y-52705892D01*
X25055047Y-52705892D02*
X25031238Y-52777321D01*
X25031238Y-52777321D02*
X25031238Y-52884464D01*
X25031238Y-52884464D02*
X25055047Y-52955892D01*
X25055047Y-52955892D02*
X25078857Y-52991607D01*
X25078857Y-52991607D02*
X25126476Y-53027321D01*
X25126476Y-53027321D02*
X25316952Y-53027321D01*
X24840761Y-53170178D02*
X24602666Y-53170178D01*
X24888380Y-53384464D02*
X24721714Y-52634464D01*
X24721714Y-52634464D02*
X24555047Y-53384464D01*
X24436000Y-52634464D02*
X24316952Y-53384464D01*
X24316952Y-53384464D02*
X24221714Y-52848750D01*
X24221714Y-52848750D02*
X24126476Y-53384464D01*
X24126476Y-53384464D02*
X24007429Y-52634464D01*
D12*
X31733904Y-85560819D02*
X31162476Y-85560819D01*
X31448190Y-86560819D02*
X31448190Y-85560819D01*
X30257714Y-86560819D02*
X30591047Y-86084628D01*
X30829142Y-86560819D02*
X30829142Y-85560819D01*
X30829142Y-85560819D02*
X30448190Y-85560819D01*
X30448190Y-85560819D02*
X30352952Y-85608438D01*
X30352952Y-85608438D02*
X30305333Y-85656057D01*
X30305333Y-85656057D02*
X30257714Y-85751295D01*
X30257714Y-85751295D02*
X30257714Y-85894152D01*
X30257714Y-85894152D02*
X30305333Y-85989390D01*
X30305333Y-85989390D02*
X30352952Y-86037009D01*
X30352952Y-86037009D02*
X30448190Y-86084628D01*
X30448190Y-86084628D02*
X30829142Y-86084628D01*
X29257714Y-86560819D02*
X29591047Y-86084628D01*
X29829142Y-86560819D02*
X29829142Y-85560819D01*
X29829142Y-85560819D02*
X29448190Y-85560819D01*
X29448190Y-85560819D02*
X29352952Y-85608438D01*
X29352952Y-85608438D02*
X29305333Y-85656057D01*
X29305333Y-85656057D02*
X29257714Y-85751295D01*
X29257714Y-85751295D02*
X29257714Y-85894152D01*
X29257714Y-85894152D02*
X29305333Y-85989390D01*
X29305333Y-85989390D02*
X29352952Y-86037009D01*
X29352952Y-86037009D02*
X29448190Y-86084628D01*
X29448190Y-86084628D02*
X29829142Y-86084628D01*
X28876761Y-86513200D02*
X28733904Y-86560819D01*
X28733904Y-86560819D02*
X28495809Y-86560819D01*
X28495809Y-86560819D02*
X28400571Y-86513200D01*
X28400571Y-86513200D02*
X28352952Y-86465580D01*
X28352952Y-86465580D02*
X28305333Y-86370342D01*
X28305333Y-86370342D02*
X28305333Y-86275104D01*
X28305333Y-86275104D02*
X28352952Y-86179866D01*
X28352952Y-86179866D02*
X28400571Y-86132247D01*
X28400571Y-86132247D02*
X28495809Y-86084628D01*
X28495809Y-86084628D02*
X28686285Y-86037009D01*
X28686285Y-86037009D02*
X28781523Y-85989390D01*
X28781523Y-85989390D02*
X28829142Y-85941771D01*
X28829142Y-85941771D02*
X28876761Y-85846533D01*
X28876761Y-85846533D02*
X28876761Y-85751295D01*
X28876761Y-85751295D02*
X28829142Y-85656057D01*
X28829142Y-85656057D02*
X28781523Y-85608438D01*
X28781523Y-85608438D02*
X28686285Y-85560819D01*
X28686285Y-85560819D02*
X28448190Y-85560819D01*
X28448190Y-85560819D02*
X28305333Y-85608438D01*
X43743381Y-83258819D02*
X44076714Y-82782628D01*
X44314809Y-83258819D02*
X44314809Y-82258819D01*
X44314809Y-82258819D02*
X43933857Y-82258819D01*
X43933857Y-82258819D02*
X43838619Y-82306438D01*
X43838619Y-82306438D02*
X43791000Y-82354057D01*
X43791000Y-82354057D02*
X43743381Y-82449295D01*
X43743381Y-82449295D02*
X43743381Y-82592152D01*
X43743381Y-82592152D02*
X43791000Y-82687390D01*
X43791000Y-82687390D02*
X43838619Y-82735009D01*
X43838619Y-82735009D02*
X43933857Y-82782628D01*
X43933857Y-82782628D02*
X44314809Y-82782628D01*
X43314809Y-82735009D02*
X42981476Y-82735009D01*
X42838619Y-83258819D02*
X43314809Y-83258819D01*
X43314809Y-83258819D02*
X43314809Y-82258819D01*
X43314809Y-82258819D02*
X42838619Y-82258819D01*
X42457666Y-83211200D02*
X42314809Y-83258819D01*
X42314809Y-83258819D02*
X42076714Y-83258819D01*
X42076714Y-83258819D02*
X41981476Y-83211200D01*
X41981476Y-83211200D02*
X41933857Y-83163580D01*
X41933857Y-83163580D02*
X41886238Y-83068342D01*
X41886238Y-83068342D02*
X41886238Y-82973104D01*
X41886238Y-82973104D02*
X41933857Y-82877866D01*
X41933857Y-82877866D02*
X41981476Y-82830247D01*
X41981476Y-82830247D02*
X42076714Y-82782628D01*
X42076714Y-82782628D02*
X42267190Y-82735009D01*
X42267190Y-82735009D02*
X42362428Y-82687390D01*
X42362428Y-82687390D02*
X42410047Y-82639771D01*
X42410047Y-82639771D02*
X42457666Y-82544533D01*
X42457666Y-82544533D02*
X42457666Y-82449295D01*
X42457666Y-82449295D02*
X42410047Y-82354057D01*
X42410047Y-82354057D02*
X42362428Y-82306438D01*
X42362428Y-82306438D02*
X42267190Y-82258819D01*
X42267190Y-82258819D02*
X42029095Y-82258819D01*
X42029095Y-82258819D02*
X41886238Y-82306438D01*
X41457666Y-82735009D02*
X41124333Y-82735009D01*
X40981476Y-83258819D02*
X41457666Y-83258819D01*
X41457666Y-83258819D02*
X41457666Y-82258819D01*
X41457666Y-82258819D02*
X40981476Y-82258819D01*
X40695761Y-82258819D02*
X40124333Y-82258819D01*
X40410047Y-83258819D02*
X40410047Y-82258819D01*
D10*
X232366856Y-51198331D02*
X232366856Y-50598331D01*
X232366856Y-50598331D02*
X232138285Y-50598331D01*
X232138285Y-50598331D02*
X232081142Y-50626902D01*
X232081142Y-50626902D02*
X232052571Y-50655474D01*
X232052571Y-50655474D02*
X232023999Y-50712617D01*
X232023999Y-50712617D02*
X232023999Y-50798331D01*
X232023999Y-50798331D02*
X232052571Y-50855474D01*
X232052571Y-50855474D02*
X232081142Y-50884045D01*
X232081142Y-50884045D02*
X232138285Y-50912617D01*
X232138285Y-50912617D02*
X232366856Y-50912617D01*
X231652571Y-50598331D02*
X231538285Y-50598331D01*
X231538285Y-50598331D02*
X231481142Y-50626902D01*
X231481142Y-50626902D02*
X231423999Y-50684045D01*
X231423999Y-50684045D02*
X231395428Y-50798331D01*
X231395428Y-50798331D02*
X231395428Y-50998331D01*
X231395428Y-50998331D02*
X231423999Y-51112617D01*
X231423999Y-51112617D02*
X231481142Y-51169760D01*
X231481142Y-51169760D02*
X231538285Y-51198331D01*
X231538285Y-51198331D02*
X231652571Y-51198331D01*
X231652571Y-51198331D02*
X231709714Y-51169760D01*
X231709714Y-51169760D02*
X231766856Y-51112617D01*
X231766856Y-51112617D02*
X231795428Y-50998331D01*
X231795428Y-50998331D02*
X231795428Y-50798331D01*
X231795428Y-50798331D02*
X231766856Y-50684045D01*
X231766856Y-50684045D02*
X231709714Y-50626902D01*
X231709714Y-50626902D02*
X231652571Y-50598331D01*
X231195428Y-50598331D02*
X231052571Y-51198331D01*
X231052571Y-51198331D02*
X230938285Y-50769760D01*
X230938285Y-50769760D02*
X230824000Y-51198331D01*
X230824000Y-51198331D02*
X230681143Y-50598331D01*
X230452571Y-50884045D02*
X230252571Y-50884045D01*
X230166857Y-51198331D02*
X230452571Y-51198331D01*
X230452571Y-51198331D02*
X230452571Y-50598331D01*
X230452571Y-50598331D02*
X230166857Y-50598331D01*
X229566857Y-51198331D02*
X229766857Y-50912617D01*
X229909714Y-51198331D02*
X229909714Y-50598331D01*
X229909714Y-50598331D02*
X229681143Y-50598331D01*
X229681143Y-50598331D02*
X229624000Y-50626902D01*
X229624000Y-50626902D02*
X229595429Y-50655474D01*
X229595429Y-50655474D02*
X229566857Y-50712617D01*
X229566857Y-50712617D02*
X229566857Y-50798331D01*
X229566857Y-50798331D02*
X229595429Y-50855474D01*
X229595429Y-50855474D02*
X229624000Y-50884045D01*
X229624000Y-50884045D02*
X229681143Y-50912617D01*
X229681143Y-50912617D02*
X229909714Y-50912617D01*
X228881143Y-51169760D02*
X228795429Y-51198331D01*
X228795429Y-51198331D02*
X228652571Y-51198331D01*
X228652571Y-51198331D02*
X228595429Y-51169760D01*
X228595429Y-51169760D02*
X228566857Y-51141188D01*
X228566857Y-51141188D02*
X228538286Y-51084045D01*
X228538286Y-51084045D02*
X228538286Y-51026902D01*
X228538286Y-51026902D02*
X228566857Y-50969760D01*
X228566857Y-50969760D02*
X228595429Y-50941188D01*
X228595429Y-50941188D02*
X228652571Y-50912617D01*
X228652571Y-50912617D02*
X228766857Y-50884045D01*
X228766857Y-50884045D02*
X228824000Y-50855474D01*
X228824000Y-50855474D02*
X228852571Y-50826902D01*
X228852571Y-50826902D02*
X228881143Y-50769760D01*
X228881143Y-50769760D02*
X228881143Y-50712617D01*
X228881143Y-50712617D02*
X228852571Y-50655474D01*
X228852571Y-50655474D02*
X228824000Y-50626902D01*
X228824000Y-50626902D02*
X228766857Y-50598331D01*
X228766857Y-50598331D02*
X228624000Y-50598331D01*
X228624000Y-50598331D02*
X228538286Y-50626902D01*
X228338285Y-50598331D02*
X228195428Y-51198331D01*
X228195428Y-51198331D02*
X228081142Y-50769760D01*
X228081142Y-50769760D02*
X227966857Y-51198331D01*
X227966857Y-51198331D02*
X227824000Y-50598331D01*
X32722856Y-51198331D02*
X32722856Y-50598331D01*
X32722856Y-50598331D02*
X32494285Y-50598331D01*
X32494285Y-50598331D02*
X32437142Y-50626902D01*
X32437142Y-50626902D02*
X32408571Y-50655474D01*
X32408571Y-50655474D02*
X32379999Y-50712617D01*
X32379999Y-50712617D02*
X32379999Y-50798331D01*
X32379999Y-50798331D02*
X32408571Y-50855474D01*
X32408571Y-50855474D02*
X32437142Y-50884045D01*
X32437142Y-50884045D02*
X32494285Y-50912617D01*
X32494285Y-50912617D02*
X32722856Y-50912617D01*
X32008571Y-50598331D02*
X31894285Y-50598331D01*
X31894285Y-50598331D02*
X31837142Y-50626902D01*
X31837142Y-50626902D02*
X31779999Y-50684045D01*
X31779999Y-50684045D02*
X31751428Y-50798331D01*
X31751428Y-50798331D02*
X31751428Y-50998331D01*
X31751428Y-50998331D02*
X31779999Y-51112617D01*
X31779999Y-51112617D02*
X31837142Y-51169760D01*
X31837142Y-51169760D02*
X31894285Y-51198331D01*
X31894285Y-51198331D02*
X32008571Y-51198331D01*
X32008571Y-51198331D02*
X32065714Y-51169760D01*
X32065714Y-51169760D02*
X32122856Y-51112617D01*
X32122856Y-51112617D02*
X32151428Y-50998331D01*
X32151428Y-50998331D02*
X32151428Y-50798331D01*
X32151428Y-50798331D02*
X32122856Y-50684045D01*
X32122856Y-50684045D02*
X32065714Y-50626902D01*
X32065714Y-50626902D02*
X32008571Y-50598331D01*
X31551428Y-50598331D02*
X31408571Y-51198331D01*
X31408571Y-51198331D02*
X31294285Y-50769760D01*
X31294285Y-50769760D02*
X31180000Y-51198331D01*
X31180000Y-51198331D02*
X31037143Y-50598331D01*
X30808571Y-50884045D02*
X30608571Y-50884045D01*
X30522857Y-51198331D02*
X30808571Y-51198331D01*
X30808571Y-51198331D02*
X30808571Y-50598331D01*
X30808571Y-50598331D02*
X30522857Y-50598331D01*
X29922857Y-51198331D02*
X30122857Y-50912617D01*
X30265714Y-51198331D02*
X30265714Y-50598331D01*
X30265714Y-50598331D02*
X30037143Y-50598331D01*
X30037143Y-50598331D02*
X29980000Y-50626902D01*
X29980000Y-50626902D02*
X29951429Y-50655474D01*
X29951429Y-50655474D02*
X29922857Y-50712617D01*
X29922857Y-50712617D02*
X29922857Y-50798331D01*
X29922857Y-50798331D02*
X29951429Y-50855474D01*
X29951429Y-50855474D02*
X29980000Y-50884045D01*
X29980000Y-50884045D02*
X30037143Y-50912617D01*
X30037143Y-50912617D02*
X30265714Y-50912617D01*
X29237143Y-51169760D02*
X29151429Y-51198331D01*
X29151429Y-51198331D02*
X29008571Y-51198331D01*
X29008571Y-51198331D02*
X28951429Y-51169760D01*
X28951429Y-51169760D02*
X28922857Y-51141188D01*
X28922857Y-51141188D02*
X28894286Y-51084045D01*
X28894286Y-51084045D02*
X28894286Y-51026902D01*
X28894286Y-51026902D02*
X28922857Y-50969760D01*
X28922857Y-50969760D02*
X28951429Y-50941188D01*
X28951429Y-50941188D02*
X29008571Y-50912617D01*
X29008571Y-50912617D02*
X29122857Y-50884045D01*
X29122857Y-50884045D02*
X29180000Y-50855474D01*
X29180000Y-50855474D02*
X29208571Y-50826902D01*
X29208571Y-50826902D02*
X29237143Y-50769760D01*
X29237143Y-50769760D02*
X29237143Y-50712617D01*
X29237143Y-50712617D02*
X29208571Y-50655474D01*
X29208571Y-50655474D02*
X29180000Y-50626902D01*
X29180000Y-50626902D02*
X29122857Y-50598331D01*
X29122857Y-50598331D02*
X28980000Y-50598331D01*
X28980000Y-50598331D02*
X28894286Y-50626902D01*
X28694285Y-50598331D02*
X28551428Y-51198331D01*
X28551428Y-51198331D02*
X28437142Y-50769760D01*
X28437142Y-50769760D02*
X28322857Y-51198331D01*
X28322857Y-51198331D02*
X28180000Y-50598331D01*
D12*
%TO.C,B+*%
X234966000Y-49800000D02*
X236966000Y-49800000D01*
X234966000Y-51800000D02*
X234966000Y-49800000D01*
X236966000Y-49800000D02*
X236966000Y-51800000D01*
X236966000Y-51800000D02*
X234966000Y-51800000D01*
%TO.C,B-*%
X223282000Y-49800000D02*
X225282000Y-49800000D01*
X223282000Y-51800000D02*
X223282000Y-49800000D01*
X225282000Y-49800000D02*
X225282000Y-51800000D01*
X225282000Y-51800000D02*
X223282000Y-51800000D01*
X35068000Y-49800000D02*
X37068000Y-49800000D01*
X35068000Y-51800000D02*
X35068000Y-49800000D01*
X37068000Y-49800000D02*
X37068000Y-51800000D01*
X37068000Y-51800000D02*
X35068000Y-51800000D01*
%TO.C,B+*%
X23638000Y-49800000D02*
X25638000Y-49800000D01*
X23638000Y-51800000D02*
X23638000Y-49800000D01*
X25638000Y-49800000D02*
X25638000Y-51800000D01*
X25638000Y-51800000D02*
X23638000Y-51800000D01*
%TD*%
M02*
