%TF.GenerationSoftware,KiCad,Pcbnew,9.0.2*%
%TF.CreationDate,2025-05-16T22:32:54+01:00*%
%TF.ProjectId,my_sweepv2,6d795f73-7765-4657-9076-322e6b696361,rev?*%
%TF.SameCoordinates,Original*%
%TF.FileFunction,Profile,NP*%
%FSLAX46Y46*%
G04 Gerber Fmt 4.6, Leading zero omitted, Abs format (unit mm)*
G04 Created by KiCad (PCBNEW 9.0.2) date 2025-05-16 22:32:54*
%MOMM*%
%LPD*%
G01*
G04 APERTURE LIST*
%TA.AperFunction,Profile*%
%ADD10C,0.050000*%
%TD*%
G04 APERTURE END LIST*
D10*
X197208832Y-80502655D02*
X197208910Y-80502676D01*
X193534902Y-94086911D02*
X193534889Y-94086908D01*
X239904719Y-48685592D02*
X239904746Y-48685592D01*
X183562324Y-24408981D02*
X183562354Y-24408981D01*
X147269148Y-41323538D02*
X147269148Y-41323573D01*
X39416897Y-47922302D02*
X39416897Y-47922307D01*
X65387900Y-77964750D02*
X65387900Y-77964703D01*
X112975231Y-81419697D02*
X112975304Y-81419697D01*
X113024771Y-89389687D02*
X113024696Y-89389687D01*
X147661516Y-89405686D02*
G75*
G02*
X145663367Y-91393246I-1999916J12394D01*
G01*
X181562300Y-22406366D02*
X169120452Y-22406366D01*
X77125791Y-25886403D02*
G75*
G02*
X75125479Y-27888885I-1999891J-2589D01*
G01*
X111416466Y-31309093D02*
X111416466Y-39322558D01*
X221269393Y-47938197D02*
G75*
G02*
X219268954Y-45922628I-293J2000205D01*
G01*
X149269746Y-31324992D02*
G75*
G02*
X151257943Y-29324974I2000154J-100D01*
G01*
X200639390Y-27901603D02*
X185560921Y-27904776D01*
X165109592Y-29334733D02*
X151257943Y-29324974D01*
X194944973Y-96540210D02*
X209526828Y-100471456D01*
X39416897Y-47922307D02*
X21525487Y-47919682D01*
X239904746Y-65807573D02*
X239916746Y-73173573D01*
X133124069Y-91404692D02*
G75*
G02*
X131499805Y-89652371I381431J1982500D01*
G01*
X60046858Y-27885713D02*
X75125479Y-27888886D01*
X127001968Y-91388804D02*
X115022889Y-91377359D01*
X37258056Y-108179254D02*
G75*
G02*
X34746148Y-107456336I-849556J1773562D01*
G01*
X77125791Y-25886403D02*
X77123858Y-24393081D01*
X167136118Y-24401500D02*
X167128931Y-27339684D01*
X149269746Y-39323692D02*
G75*
G02*
X147269148Y-41323538I-1999846J0D01*
G01*
X59043552Y-29437179D02*
X59046664Y-28880106D01*
X201642660Y-29453027D02*
X201639509Y-28888935D01*
X217258440Y-30409002D02*
G75*
G02*
X219263597Y-32408211I5260J-1999890D01*
G01*
X41422555Y-32392268D02*
G75*
G02*
X43427760Y-30393114I1999945J-784D01*
G01*
X93550114Y-24393600D02*
X93557312Y-27336174D01*
X165700814Y-77442345D02*
X165692980Y-74565939D01*
X200639390Y-27901603D02*
G75*
G02*
X201639509Y-28888935I210J-999989D01*
G01*
X20781466Y-48669692D02*
X20781466Y-65791683D01*
X197208910Y-80502676D02*
X193534889Y-94086908D01*
X63477310Y-80486814D02*
G75*
G02*
X65387900Y-77964756I1930630J522162D01*
G01*
X187125401Y-77898454D02*
G75*
G02*
X185145574Y-75886507I20099J1999862D01*
G01*
X131602069Y-43320572D02*
G75*
G02*
X133565308Y-41319108I2000531J1280D01*
G01*
X167128931Y-27339684D02*
G75*
G02*
X165109592Y-29334736I-2000031J4892D01*
G01*
X202645130Y-30447438D02*
G75*
G02*
X201642665Y-29453027I-2630J999846D01*
G01*
X75540655Y-75870644D02*
G75*
G02*
X73552314Y-77882650I-1999955J-12048D01*
G01*
X209989109Y-100660650D02*
X223427928Y-108195016D01*
X113416600Y-41307683D02*
X126999900Y-41307683D01*
X167706114Y-72560408D02*
X183153500Y-72560408D01*
X217258440Y-30409002D02*
X202645130Y-30447438D01*
X91550100Y-22390476D02*
G75*
G02*
X93550114Y-24393600I0J-2000016D01*
G01*
X239916746Y-73173573D02*
X239904747Y-79311205D01*
X115022889Y-91377359D02*
G75*
G02*
X113024770Y-89389687I1811J1999967D01*
G01*
X183560421Y-25902103D02*
X183562354Y-24408981D01*
X95558809Y-29318856D02*
G75*
G02*
X93557312Y-27336174I-1409J2000164D01*
G01*
X110975300Y-79432023D02*
X96985500Y-79432023D01*
X239904747Y-79311205D02*
G75*
G02*
X236973743Y-88655350I-16773447J129613D01*
G01*
X20781466Y-65791683D02*
X20769466Y-73157683D01*
X63477310Y-80486814D02*
X67151320Y-94071005D01*
X75532739Y-74556540D02*
G75*
G02*
X77522903Y-72544519I1999961J12048D01*
G01*
X209526828Y-100471456D02*
G75*
G02*
X209989110Y-100660649I-520928J-1932236D01*
G01*
X219268956Y-45922628D02*
X219263657Y-32408211D01*
X94985423Y-77417280D02*
X94993232Y-74549965D01*
X95558809Y-29318856D02*
X109415091Y-29309093D01*
X113416600Y-41307683D02*
G75*
G02*
X111416466Y-39322558I0J2000191D01*
G01*
X126999900Y-41307683D02*
G75*
G02*
X128999874Y-43331054I0J-2000109D01*
G01*
X149269746Y-31324992D02*
X149269746Y-39323692D01*
X59046664Y-28880106D02*
G75*
G02*
X60046858Y-27885740I999936J-5586D01*
G01*
X147269148Y-41323573D02*
X133565308Y-41319106D01*
X187125401Y-77898454D02*
X195298398Y-77980594D01*
X77123858Y-24393081D02*
G75*
G02*
X79134483Y-22390476I2000042J2589D01*
G01*
X23712686Y-88639787D02*
G75*
G02*
X20781463Y-79294960I13842614J9474195D01*
G01*
X221269393Y-47938197D02*
X239154590Y-47935573D01*
X50701860Y-100642093D02*
G75*
G02*
X51159276Y-100455585I978040J-1744499D01*
G01*
X23712686Y-88639787D02*
X34746118Y-107456355D01*
X96985500Y-79432023D02*
G75*
G02*
X94985422Y-77417280I0J2000131D01*
G01*
X92993300Y-72544518D02*
X77522903Y-72544518D01*
X239904746Y-48685592D02*
X239904746Y-65807573D01*
X73552314Y-77882649D02*
X65387900Y-77964703D01*
X195298398Y-77980594D02*
G75*
G02*
X197208804Y-80502647I-20098J-1999798D01*
G01*
X50701860Y-100642093D02*
X37258056Y-108179254D01*
X236973724Y-88655337D02*
X225939769Y-107472799D01*
X79134483Y-22390476D02*
X91550100Y-22390476D01*
X194944973Y-96540210D02*
G75*
G02*
X193534902Y-94086911I520627J1931118D01*
G01*
X165692980Y-74565939D02*
G75*
G02*
X167706114Y-72560407I2000120J5447D01*
G01*
X20769466Y-73157683D02*
X20781465Y-79294960D01*
X129037746Y-89552688D02*
G75*
G02*
X127001968Y-91388795I-1977846J146296D01*
G01*
X147710908Y-81435498D02*
G75*
G02*
X149710870Y-79447962I1999892J-12394D01*
G01*
X110975300Y-79432023D02*
G75*
G02*
X112975231Y-81419697I0J-1999969D01*
G01*
X181562300Y-22406366D02*
G75*
G02*
X183562324Y-24408981I0J-2000026D01*
G01*
X225939769Y-107472799D02*
G75*
G02*
X223427911Y-108195051I-1661969J1051007D01*
G01*
X43427760Y-30393112D02*
X58044969Y-30431559D01*
X185153473Y-74572456D02*
X185145557Y-75886507D01*
X239154590Y-47935573D02*
G75*
G02*
X239904719Y-48685592I110J-750019D01*
G01*
X133124069Y-91404692D02*
X145663367Y-91393249D01*
X149710870Y-79447913D02*
X163700700Y-79447913D01*
X113024696Y-89389687D02*
X112975304Y-81419697D01*
X147661516Y-89405686D02*
X147710908Y-81435498D01*
X20781466Y-48669692D02*
G75*
G02*
X21525487Y-47919682I750034J0D01*
G01*
X92993300Y-72544518D02*
G75*
G02*
X94993166Y-74549965I0J-1999874D01*
G01*
X59043552Y-29437179D02*
G75*
G02*
X58044969Y-30431559I-999952J5587D01*
G01*
X109415091Y-29309093D02*
G75*
G02*
X111416399Y-31309093I1409J-1999899D01*
G01*
X75532739Y-74556540D02*
X75540655Y-75870644D01*
X129370958Y-71555427D02*
X128981545Y-71555427D01*
X185560921Y-27904776D02*
G75*
G02*
X183560418Y-25902103I-421J2000084D01*
G01*
X65735437Y-96525884D02*
X51159279Y-100455595D01*
X183153500Y-72560408D02*
G75*
G02*
X185153448Y-74572456I0J-1999984D01*
G01*
X131593545Y-52759427D02*
X131593545Y-71555427D01*
X41417250Y-45923036D02*
X41422555Y-32392268D01*
X129370957Y-47679427D02*
X128981545Y-47679427D01*
X131530045Y-76635427D02*
X131499805Y-89652371D01*
X41417250Y-45923036D02*
G75*
G02*
X39416897Y-47922302I-2000050J784D01*
G01*
X167136118Y-24401500D02*
G75*
G02*
X169120452Y-22406367I2000182J-4992D01*
G01*
X165700814Y-77442345D02*
G75*
G02*
X163700700Y-79447913I-2000114J-5447D01*
G01*
X67151320Y-94071005D02*
G75*
G02*
X65735437Y-96525885I-1930720J-522187D01*
G01*
X129371059Y-76635427D02*
X128981545Y-76635427D01*
X128981545Y-76635427D02*
X129037746Y-89552688D01*
X131593545Y-47679427D02*
X131276042Y-47679427D01*
X131593545Y-52759427D02*
X131275952Y-52759427D01*
X131276043Y-71555427D02*
G75*
G02*
X129370959Y-71555427I-952542J381064D01*
G01*
X129371047Y-52759427D02*
G75*
G02*
X131275953Y-52759427I952453J-380931D01*
G01*
X131593545Y-71555427D02*
X131276043Y-71555427D01*
X131276042Y-47679427D02*
G75*
G02*
X129370958Y-47679427I-952542J381064D01*
G01*
X128999873Y-43331054D02*
X128981545Y-47679427D01*
X129371059Y-76635427D02*
G75*
G02*
X131275953Y-76635427I952447J-380923D01*
G01*
X128981545Y-52759427D02*
X128981545Y-71555427D01*
X131530045Y-76635427D02*
X131275953Y-76635427D01*
X131602069Y-43320572D02*
X131593545Y-47679427D01*
X129371047Y-52759427D02*
X128981545Y-52759427D01*
M02*
